<?xml version="1.0" encoding="UTF-8" standalone="no"?>
<!-- Created with Inkscape (http://www.inkscape.org/) -->

<svg
   xmlns:svg="http://www.w3.org/2000/svg"
   xmlns="http://www.w3.org/2000/svg"
   version="1.1"
   width="744.09448"
   height="1052.3622"
   id="svg2">
  <defs
     id="defs4" />
  <rect
     width="127.61079"
     height="147.10204"
     x="98.887444"
     y="14.404985"
     id="rect3705"
     style="fill:#ff0000;fill-opacity:0.19607843;stroke:none" />
  <path
     d="m 100.65625,15.84375 0,7.84375 25.28125,0 0,26.25 -25.28125,0 0,7.875 25.28125,0 0,26.25 -25.28125,0 0,7.84375 25.28125,0 0,26.28125 -25.28125,0 0,7.84375 25.28125,0 0,26.25 -25.28125,0 0,7.875 124.09375,0 0,-7.875 -61.46875,0 0,-26.25 61.46875,0 0,-7.84375 -61.46875,0 0,-26.28125 61.46875,0 0,-7.84375 -61.46875,0 0,-26.25 61.46875,0 0,-7.875 -61.46875,0 0,-26.25 61.46875,0 0,-7.84375 -61.46875,0 -7.96875,0 -10.8125,0 -18.5625,0 -25.28125,0 z M 144.5,23.6875 l 10.8125,0 0,26.25 -10.8125,0 0,-26.25 z m 0,34.125 10.8125,0 0,26.25 -10.8125,0 0,-26.25 z m 0,34.09375 10.8125,0 0,26.28125 -10.8125,0 0,-26.28125 z m 0,34.125 10.8125,0 0,26.25 -10.8125,0 0,-26.25 z"
     id="rect2816"
     style="fill:#000000;fill-opacity:1;stroke:none" />
  <path
     d="m 180.14598,74.118462 c 0,5.310569 -4.26114,9.615635 -9.51752,9.615635 -5.25638,0 -9.51751,-4.305066 -9.51751,-9.615635 0,-5.310569 4.26113,-9.615636 9.51751,-9.615636 5.25638,0 9.51752,4.305067 9.51752,9.615636 z"
     transform="matrix(1.0909984,0,0,1.0909984,-0.83825822,-9.7863435)"
     id="path2816"
     style="fill:#008000;fill-opacity:1;stroke:#00ffff;stroke-width:0.17716534;stroke-linecap:square;stroke-miterlimit:4;stroke-opacity:0.60784314;stroke-dashoffset:0" />
  <path
     d="m 180.14598,74.118462 c 0,5.310569 -4.26114,9.615635 -9.51752,9.615635 -5.25638,0 -9.51751,-4.305066 -9.51751,-9.615635 0,-5.310569 4.26113,-9.615636 9.51751,-9.615636 5.25638,0 9.51752,4.305067 9.51752,9.615636 z"
     transform="matrix(1.0909984,0,0,1.0909984,-0.83825822,23.966499)"
     id="path2818"
     style="fill:#008000;fill-opacity:1;stroke:#00ffff;stroke-width:0.17716534;stroke-linecap:square;stroke-miterlimit:4;stroke-opacity:0.60784314;stroke-dashoffset:0" />
</svg>
