<?xml version="1.0" encoding="UTF-8" standalone="no"?>
<!-- Created with Inkscape (http://www.inkscape.org/) -->

<svg
   xmlns:svg="http://www.w3.org/2000/svg"
   xmlns="http://www.w3.org/2000/svg"
   version="1.1"
   width="48"
   height="48"
   id="svg2">
  <defs
     id="defs4">
  </defs>
  <rect
     width="40.740864"
     height="20.389946"
     x="1.6315457"
     y="11.184592"
     id="rect3705"
     style="fill:#ff0000;fill-opacity:0.19607843;stroke:none" />
  <path
     d="M 36.65625,15.40625 C 34.76116,15.406262 33.288546,15.950756 32.25,17 c -1.033197,1.043912 -1.531251,2.52014 -1.53125,4.46875 -1e-6,1.461468 0.286131,2.656918 0.875,3.59375 0.588866,0.936837 1.285391,1.594017 2.09375,1.96875 0.813704,0.369381 1.845544,0.5625 3.125,0.5625 1.054601,0 1.945116,-0.16361 2.625,-0.46875 0.685219,-0.305141 1.258351,-0.744174 1.71875,-1.34375 0.460376,-0.599573 0.785854,-1.355988 1,-2.25 l -3.1875,-0.96875 c -0.160609,0.744119 -0.422584,1.327959 -0.78125,1.71875 -0.353329,0.390797 -0.866572,0.593752 -1.5625,0.59375 -0.717354,2e-6 -1.291358,-0.236946 -1.6875,-0.71875 -0.396153,-0.487151 -0.593754,-1.412529 -0.59375,-2.71875 -4e-6,-1.054602 0.168087,-1.819984 0.5,-2.3125 0.438969,-0.663806 1.081829,-0.99999 1.90625,-1 0.364021,10e-6 0.674308,0.100115 0.96875,0.25 0.294426,0.149903 0.546564,0.346634 0.75,0.625 0.123118,0.165962 0.262571,0.422583 0.375,0.78125 l 3.1875,-0.71875 c -0.412219,-1.241967 -1.023829,-2.150415 -1.875,-2.75 -0.845838,-0.599563 -2.017131,-0.906238 -3.5,-0.90625 z m -30.5,0.21875 -4.40625,11.75 3.71875,0 0.5625,-1.9375 4.15625,0 0.5625,1.9375 3.8125,0 -4.4375,-11.75 -3.96875,0 z m 9.5625,0 0,11.75 6.28125,0 c 0.267659,0 0.805929,-0.04918 1.625,-0.15625 0.615625,-0.0803 1.069849,-0.198339 1.375,-0.375 0.492497,-0.283727 0.903762,-0.669094 1.1875,-1.15625 0.283716,-0.487153 0.406238,-1.045966 0.40625,-1.65625 C 26.593738,23.281785 26.401489,22.680012 26,22.1875 25.603841,21.689644 24.970818,21.328433 24.125,21.125 c 0.556738,-0.192714 0.992159,-0.449336 1.28125,-0.78125 0.43361,-0.497854 0.656239,-1.116556 0.65625,-1.8125 -1.1e-5,-0.829759 -0.32723,-1.500388 -0.9375,-2.0625 -0.604939,-0.56209 -1.45885,-0.843738 -2.59375,-0.84375 l -6.8125,0 z M 19.40625,18 21,18 c 0.551388,9e-6 0.936755,0.08854 1.15625,0.28125 0.224833,0.192729 0.343742,0.469894 0.34375,0.8125 -8e-6,0.369389 -0.118917,0.645684 -0.34375,0.84375 -0.219495,0.192731 -0.620052,0.281257 -1.1875,0.28125 l -1.5625,0 0,-2.21875 z m -11.3125,0.65625 1.3125,4.25 -2.59375,0 1.28125,-4.25 z m 11.3125,3.8125 1.84375,0 c 0.637041,4e-6 1.060885,0.09837 1.3125,0.3125 0.256952,0.208785 0.406242,0.495786 0.40625,0.84375 -8e-6,0.374737 -0.149298,0.681412 -0.40625,0.90625 -0.256968,0.21949 -0.686166,0.312502 -1.3125,0.3125 l -1.84375,0 0,-2.375 z"
     id="path2887"
     style="font-size:16.44548225px;font-style:normal;font-variant:normal;font-weight:bold;font-stretch:normal;fill:#000000;fill-opacity:1;stroke:none;font-family:Arial Black;-inkscape-font-specification:'Arial Black, Bold'" />
  <path
     d="m 23.1875,11.34375 0,2.1875 4.5625,0 0,15.75 -4.5625,0 0,2.21875 4.5625,0 1.09375,-1.65625 1.09375,1.65625 4.78125,0 0,-2.21875 -4.78125,0 0,-15.75 4.78125,0 0,-2.1875 -4.78125,0 L 28.84375,13 27.75,11.34375 l -4.5625,0 z"
     id="rect2893"
     style="fill:#000000;fill-opacity:1;stroke:none" />
</svg>
