<?xml version="1.0" encoding="UTF-8" standalone="no"?>
<!-- Created with Inkscape (http://www.inkscape.org/) -->

<svg
   xmlns:svg="http://www.w3.org/2000/svg"
   xmlns="http://www.w3.org/2000/svg"
   version="1.1"
   width="744.09448"
   height="1052.3622"
   id="svg4278">
  <defs
     id="defs4280" />
  <g
     id="layer1">
    <rect
       width="51.892811"
       height="47.832832"
       x="154.36581"
       y="429.42529"
       id="rect3705"
       style="fill:#ff0000;fill-opacity:0.19607843;stroke:none" />
    <path
       d="m 155.8,432.55914 c -0.549,0 -1,0.449 -1,1 l 0,19.40625 11,0 0,-4 c 0,-1.1 0.69325,-1.3965 1.53125,-0.6875 l 9.9375,8.40625 c 0.84,0.711 0.84,1.88475 0,2.59375 l -9.9375,8.40625 c -0.839,0.711 -1.53125,0.38125 -1.53125,-0.71875 l 0,-4 -11,0 0,10.59375 c 0,0.55 0.451,1 1,1 l 31,0 c 0.551,0 1,-0.45 1,-1 l 0,-27 -14,-14 -18,0 z m 18,2 12,12 -12,0 0,-12 z"
       id="path857"
       style="fill:#333333" />
    <g
       transform="matrix(0,-1,1,0,0,0)"
       id="text4310"
       style="font-size:20px;font-style:normal;font-variant:normal;font-weight:bold;font-stretch:normal;fill:#000000;fill-opacity:1;stroke:none;font-family:Arial Black;-inkscape-font-specification:'Arial Black, Bold'">
      <path
         d="m -476.98199,191.82036 5.82031,0 2.24609,8.71094 2.23633,-8.71094 5.80078,0 0,14.3164 -3.61328,0 0,-10.91796 -2.80273,10.91796 -3.27149,0 -2.79297,-10.91796 0,10.91796 -3.62304,0 0,-14.3164"
         id="path2817" />
      <path
         d="m -457.8902,191.82036 4.4336,0 0,14.3164 -4.4336,0 0,-14.3164"
         id="path2819" />
      <path
         d="m -450.23395,191.82036 6.57227,0 c 1.29556,1e-5 2.34048,0.17579 3.13476,0.52734 0.80077,0.35158 1.46158,0.85613 1.98243,1.51367 0.52081,0.65757 0.89842,1.42254 1.13281,2.29493 0.23436,0.8724 0.35155,1.79688 0.35156,2.77343 -1e-5,1.52996 -0.1758,2.71811 -0.52734,3.56446 -0.34507,0.83984 -0.82684,1.54622 -1.44532,2.11914 -0.6185,0.5664 -1.28256,0.94401 -1.99218,1.13281 -0.97007,0.26042 -1.84897,0.39062 -2.63672,0.39062 l -6.57227,0 0,-14.3164 m 4.42383,3.24219 0,7.82226 1.08398,0 c 0.92448,0 1.58203,-0.10091 1.97266,-0.30273 0.39062,-0.20833 0.69661,-0.56641 0.91797,-1.07422 0.22134,-0.51432 0.33202,-1.3444 0.33203,-2.49024 -10e-6,-1.51691 -0.2474,-2.55532 -0.74219,-3.11523 -0.4948,-0.55989 -1.31511,-0.83983 -2.46093,-0.83984 l -1.10352,0"
         id="path2821" />
      <path
         d="m -434.56989,191.82036 4.4336,0 0,14.3164 -4.4336,0 0,-14.3164"
         id="path2823" />
    </g>
  </g>
</svg>
