<?xml version="1.0" encoding="UTF-8" standalone="no"?>
<!-- Created with Inkscape (http://www.inkscape.org/) -->

<svg
   xmlns:svg="http://www.w3.org/2000/svg"
   xmlns="http://www.w3.org/2000/svg"
   version="1.1"
   width="48"
   height="48"
   id="svg2">
  <defs
     id="defs4" />
  <rect
     width="33.71946"
     height="25.234213"
     x="8.9013758"
     y="8.0733757"
     id="rect3705"
     style="fill:#ff0000;fill-opacity:0.19607843;stroke:none" />
  <path
     d="m 19.464231,8.2373571 0,2.7187499 C 13.731856,11.191753 9.0892305,15.951079 9.0892305,21.737357 l 0,0.59375 c 0,5.934768 4.8777325,10.8125 10.8125005,10.8125 l 11.71875,0 c 5.934768,0 10.8125,-4.877732 10.8125,-10.8125 l 0,-0.59375 c 0,-5.934768 -4.877732,-10.8125 -10.8125,-10.8125 l -4.1875,0 0,5.625 4.1875,0 c 2.929232,0 5.1875,2.258268 5.1875,5.1875 l 0,0.59375 c 0,2.929232 -2.258268,5.1875 -5.1875,5.1875 l -11.71875,0 c -2.929232,0 -5.1875,-2.258268 -5.1875,-5.1875 l 0,-0.59375 c 0,-2.778351 2.041204,-4.939587 4.75,-5.15625 l 0,3.0625 6.875,-5.71875 -6.875,-5.6874999 z"
     id="path3632"
     style="fill:#000000;fill-opacity:1;stroke:none" />
</svg>
