<?xml version="1.0" encoding="UTF-8" standalone="no"?>
<!-- Created with Inkscape (http://www.inkscape.org/) -->

<svg
   xmlns:svg="http://www.w3.org/2000/svg"
   xmlns="http://www.w3.org/2000/svg"
   version="1.1"
   width="744.09448"
   height="1052.3622"
   id="svg4278">
  <defs
     id="defs4280">
    <clipPath
       id="clipPath8147">
      <path
         d="M 0,96 96,96 96,0 0,0 0,96 z"
         id="path8149" />
    </clipPath>
  </defs>
  <rect
     width="65.629433"
     height="47.832832"
     x="140.6292"
     y="429.42529"
     id="rect3705"
     style="fill:#ff0000;fill-opacity:0.19607843;stroke:none" />
  <g
     transform="matrix(0,-1,1,0,0,-0.02023129)"
     id="text4310"
     style="font-size:20px;font-style:normal;font-variant:normal;font-weight:bold;font-stretch:normal;fill:#000000;fill-opacity:1;stroke:none;font-family:Arial Black;-inkscape-font-specification:'Arial Black, Bold'">
    <path
       d="m -476.98199,191.82036 5.82031,0 2.24609,8.71094 2.23633,-8.71094 5.80078,0 0,14.3164 -3.61328,0 0,-10.91796 -2.80273,10.91796 -3.27149,0 -2.79297,-10.91796 0,10.91796 -3.62304,0 0,-14.3164"
       id="path2817" />
    <path
       d="m -457.8902,191.82036 4.4336,0 0,14.3164 -4.4336,0 0,-14.3164"
       id="path2819" />
    <path
       d="m -450.23395,191.82036 6.57227,0 c 1.29556,1e-5 2.34048,0.17579 3.13476,0.52734 0.80077,0.35158 1.46158,0.85613 1.98243,1.51367 0.52081,0.65757 0.89842,1.42254 1.13281,2.29493 0.23436,0.8724 0.35155,1.79688 0.35156,2.77343 -1e-5,1.52996 -0.1758,2.71811 -0.52734,3.56446 -0.34507,0.83984 -0.82684,1.54622 -1.44532,2.11914 -0.6185,0.5664 -1.28256,0.94401 -1.99218,1.13281 -0.97007,0.26042 -1.84897,0.39062 -2.63672,0.39062 l -6.57227,0 0,-14.3164 m 4.42383,3.24219 0,7.82226 1.08398,0 c 0.92448,0 1.58203,-0.10091 1.97266,-0.30273 0.39062,-0.20833 0.69661,-0.56641 0.91797,-1.07422 0.22134,-0.51432 0.33202,-1.3444 0.33203,-2.49024 -10e-6,-1.51691 -0.2474,-2.55532 -0.74219,-3.11523 -0.4948,-0.55989 -1.31511,-0.83983 -2.46093,-0.83984 l -1.10352,0"
       id="path2821" />
    <path
       d="m -434.56989,191.82036 4.4336,0 0,14.3164 -4.4336,0 0,-14.3164"
       id="path2823" />
  </g>
  <g
     transform="matrix(0.70027533,0,0,-0.70027533,130.71621,487.15212)"
     id="g8143">
    <g
       clip-path="url(#clipPath8147)"
       id="g8145">
      <path
         d="m 70.836,50.408 -45.672,0 0,-31.093 45.672,0 0,31.093 z m 10.041,17.377 0,-51.047 c 0,-1.082 -0.877,-1.959 -1.959,-1.959 l -61.834,0 c -1.085,0 -1.961,0.877 -1.961,1.959 l 0,62.522 c 0,1.083 0.876,1.961 1.961,1.961 l 8.08,0 0,-23.756 35.631,0 0,23.756 6.652,0 13.43,-13.436 z m -16.033,-36.84 -34.983,0 0,-3.923 34.983,0 0,3.923 z m 0,11 -34.983,0 0,-3.921 34.983,0 0,3.921 z m -9.715,19.16 -13.605,0 0,17.488 13.605,0 0,-17.488 z"
         id="path8151"
         style="fill:#333333;fill-opacity:1;fill-rule:nonzero;stroke:none" />
    </g>
  </g>
</svg>
