<?xml version="1.0" encoding="UTF-8" standalone="no"?>
<!-- Created with Inkscape (http://www.inkscape.org/) -->

<svg
   xmlns:svg="http://www.w3.org/2000/svg"
   xmlns="http://www.w3.org/2000/svg"
   version="1.1"
   width="744.09448"
   height="1052.3622"
   id="svg2">
  <defs
     id="defs4" />
  <rect
     width="139.77751"
     height="153.38164"
     x="65.134598"
     y="10.872711"
     id="rect3705"
     style="fill:#ff0000;fill-opacity:0.19607843;stroke:none" />
  <path
     d="m 67.125,15.84375 0,7.84375 5.5625,0 0,26.25 -5.5625,0 0,7.875 5.5625,0 0,26.25 -5.5625,0 0,7.84375 5.5625,0 0,26.28125 -5.5625,0 0,7.84375 5.5625,0 0,26.25 -5.5625,0 0,7.875 135.5,0 0,-7.875 -52.40625,0 0,3.46875 c -0.008,0.79953 -0.73172,1.52321 -1.53125,1.53125 l -18.0625,0 c -0.79953,-0.008 -1.52321,-0.73172 -1.53125,-1.53125 l 0,-3.46875 -43.84375,0 0,-26.25 45.46875,0 c 0.71768,-1.95329 1.79004,-3.72388 3.15625,-5.3125 0.0103,-0.0106 0.0207,-0.021 0.0312,-0.0312 0.58657,-0.66655 1.4726,-1.52132 2.53125,-2.5 l -51.1875,0 0,-26.28125 39.96875,0 c 2.52213,-1.593733 5.53661,-2.689169 9,-3.3125 l -3.59375,0 c -0.79953,-0.008 -1.52321,-0.731715 -1.53125,-1.53125 l 0,-3 -43.84375,0 0,-26.25 45.375,0 c 0.0398,-0.119017 0.0512,-0.258911 0.0937,-0.375 l -0.0312,0 c 0.7177,-1.990003 1.79969,-3.792511 3.1875,-5.40625 0.0103,-0.01056 0.0207,-0.02098 0.0312,-0.03125 0.49703,-0.564803 1.22834,-1.275591 2.0625,-2.0625 l -50.71875,0 0,-26.25 39.25,0 c 4.2947,-2.988292 10.11948,-4.406193 17.3125,-4.40625 6.67471,6.8e-5 12.21306,1.401314 16.5,4.3125 0.0438,0.0296 0.0815,0.06397 0.125,0.09375 l 44.1875,0 0,-7.84375 -111.375,0 -18.5625,0 -5.5625,0 1e-4,-5e-5 z M 163,49.9375 c -1.68938,1.992669 -4.05249,4.146868 -7.125,6.5625 -0.57907,0.45867 -1.07156,0.888763 -1.5625,1.3125 l 48.3125,0 0,-7.875 -39.625,0 z m -12.78125,34.125 0,3 c -0.003,0.750512 -0.62913,1.447858 -1.375,1.53125 3.35671,0.62171 6.32875,1.706066 8.875,3.3125 l 44.90625,0 0,-7.84375 -52.40625,0 z m 13.15625,34.125 c -1.70522,2.111 -4.20744,4.41136 -7.5,7 -0.37129,0.29409 -0.6648,0.56349 -1,0.84375 l 47.75,0 0,-7.84375 -39.25,0 z"
     id="rect2816"
     style="fill:#000000;fill-opacity:1;stroke:none" />
  <g
     id="text2820"
     style="font-size:90.98125458px;font-style:normal;font-variant:normal;font-weight:bold;font-stretch:normal;fill:#ff0000;fill-opacity:1;stroke:none;font-family:Arial Black;-inkscape-font-specification:'Arial Black, Bold'">
    <path
       d="m 148.06963,66.62506 -16.88129,0 0,-1.688129 c -2e-5,-2.872755 0.32576,-5.197632 0.97734,-6.974637 0.65154,-1.806563 1.61407,-3.450266 2.88759,-4.931113 1.30309,-1.480779 4.20548,-4.08701 8.70719,-7.818701 2.39888,-1.954632 3.59834,-3.746416 3.59838,-5.375358 -4e-5,-1.628847 -0.48871,-2.887538 -1.46601,-3.776077 -0.94775,-0.918053 -2.39895,-1.377105 -4.3536,-1.377158 -2.10278,5.3e-5 -3.85014,0.696035 -5.24208,2.087949 -1.36237,1.392015 -2.23605,3.820548 -2.62104,7.285608 l -17.23668,-2.132373 c 0.59232,-6.337835 2.88758,-11.431833 6.88578,-15.282008 4.02781,-3.87967 10.18799,-5.819535 18.48057,-5.819601 6.45632,6.6e-5 11.66878,1.347606 15.6374,4.042624 5.39012,3.642862 8.0852,8.49993 8.08525,14.571216 -5e-5,2.51743 -0.69603,4.945964 -2.08795,7.285609 -1.39201,2.339725 -4.23517,5.197694 -8.52949,8.573917 -2.99128,2.369333 -4.88672,4.279582 -5.68633,5.730752 -0.77006,1.421607 -1.15507,3.287432 -1.15503,5.59748 m -17.45881,4.486869 18.08075,0 0,15.948374 -18.08075,0 0,-15.948374"
       id="path2875" />
  </g>
  <g
     id="text2844"
     style="font-size:90.98125458px;font-style:normal;font-variant:normal;font-weight:bold;font-stretch:normal;fill:#ff0000;fill-opacity:1;stroke:none;font-family:Arial Black;-inkscape-font-specification:'Arial Black, Bold'">
    <path
       d="m 148.06963,135.31167 -16.88129,0 0,-1.68812 c -2e-5,-2.87276 0.32576,-5.19764 0.97734,-6.97464 0.65154,-1.80656 1.61407,-3.45027 2.88759,-4.93111 1.30309,-1.48078 4.20548,-4.08701 8.70719,-7.81871 2.39888,-1.95463 3.59834,-3.74641 3.59838,-5.37535 -4e-5,-1.62885 -0.48871,-2.88754 -1.46601,-3.77608 -0.94775,-0.91805 -2.39895,-1.37711 -4.3536,-1.37716 -2.10278,5e-5 -3.85014,0.69604 -5.24208,2.08795 -1.36237,1.39202 -2.23605,3.82055 -2.62104,7.28561 l -17.23668,-2.13237 c 0.59232,-6.33784 2.88758,-11.431837 6.88578,-15.282012 4.02781,-3.87967 10.18799,-5.819535 18.48057,-5.819601 6.45632,6.6e-5 11.66878,1.347606 15.6374,4.042624 5.39012,3.642862 8.0852,8.499929 8.08525,14.571219 -5e-5,2.51743 -0.69603,4.94596 -2.08795,7.28561 -1.39201,2.33972 -4.23517,5.19769 -8.52949,8.57391 -2.99128,2.36934 -4.88672,4.27958 -5.68633,5.73076 -0.77006,1.4216 -1.15507,3.28743 -1.15503,5.59747 m -17.45881,4.48687 18.08075,0 0,15.94838 -18.08075,0 0,-15.94838"
       id="path2872" />
  </g>
</svg>
