<?xml version="1.0" encoding="UTF-8" standalone="no"?>
<!-- Created with Inkscape (http://www.inkscape.org/) -->

<svg
   xmlns:svg="http://www.w3.org/2000/svg"
   xmlns="http://www.w3.org/2000/svg"
   version="1.1"
   width="744.09448"
   height="1052.3622"
   id="svg2">
  <defs
     id="defs4" />
  <rect
     width="37.374126"
     height="36.140408"
     x="69.375488"
     y="14.064211"
     id="rect3705"
     style="fill:#ff0000;fill-opacity:0.19607843;stroke:none" />
  <path
     d="m 90.5625,14.15625 0,7.96875 c -2.47916,-2.047734 -6.09953,-2.903711 -9.71875,-2.71875 -2.895369,0.147969 -5.808664,0.948321 -8.125,2.28125 -0.982619,0.565447 -1.925333,1.29904 -2.84375,2.125 l 0,20.78125 c 4.682135,1.429384 10.845004,0.352368 14.90625,-2 4.41435,-2.556898 8.42872,-7.777512 8.875,-12.8125 l 0.03125,-0.0625 0,-0.25 c 0.0264,-0.426743 0.0276,-0.828756 0,-1.25 l 0,-8.71875 0,-5.34375 -3.125,0 z m 9.71875,11.6875 c -3.034611,0 -5.5,2.465389 -5.5,5.5 0,3.034611 2.465389,5.5 5.5,5.5 3.03461,0 5.5,-2.465389 5.5,-5.5 0,-3.034611 -2.46539,-5.5 -5.5,-5.5 z"
     id="rect2820-4-4"
     style="fill:#000000;fill-opacity:1;stroke:none" />
</svg>
