<?xml version="1.0" encoding="UTF-8" standalone="no"?>
<!-- Created with Inkscape (http://www.inkscape.org/) -->

<svg
   xmlns:svg="http://www.w3.org/2000/svg"
   xmlns="http://www.w3.org/2000/svg"
   version="1.1"
   width="744.09448"
   height="1052.3622"
   id="svg2">
  <defs
     id="defs4" />
  <rect
     width="139.77751"
     height="153.38164"
     x="65.134598"
     y="10.872711"
     id="rect3705"
     style="fill:#ff0000;fill-opacity:0.19607843;stroke:none" />
  <path
     d="m 69.0625,15.84375 0,7.84375 56.6875,0 0,26.25 -56.6875,0 0,7.875 56.6875,0 0,26.25 -56.6875,0 0,7.84375 56.6875,0 0,26.28125 -56.6875,0 0,7.84375 56.6875,0 0,26.25 -56.6875,0 0,7.875 131.9375,0 0,-7.875 -56.6875,0 0,-26.25 56.6875,0 0,-7.84375 -56.6875,0 0,-26.28125 56.6875,0 0,-7.84375 -56.6875,0 0,-26.25 56.6875,0 0,-7.875 -56.6875,0 0,-26.25 56.6875,0 0,-7.84375 -56.6875,0 -18.5625,0 -56.6875,0 z"
     id="rect2816"
     style="fill:#000000;fill-opacity:1;stroke:none" />
</svg>
