<?xml version="1.0" encoding="UTF-8" standalone="no"?>
<!-- Created with Inkscape (http://www.inkscape.org/) -->

<svg
   xmlns:svg="http://www.w3.org/2000/svg"
   xmlns="http://www.w3.org/2000/svg"
   version="1.1"
   width="48"
   height="48"
   id="svg2">
  <defs
     id="defs4" />
  <rect
     width="30.157"
     height="30.1"
     x="0"
     y="0"
     id="rect3705"
     style="fill:#ff0000;fill-opacity:0.19607843;stroke:none" />
  <path
     d="m 2.3081877,23.620861 3.299528,-0.690215 c 0.20639,0.247829 0.440817,0.476842 0.66439,0.705718 0.01615,0.01651 0.03659,0.02934 0.05279,0.04578 0.212281,0.214869 0.431069,0.40972 0.657385,0.607146 0.07707,0.06757 0.14413,0.146227 0.223114,0.212006 l -0.696806,3.29903 5.5528923,2.300083 1.84005,-2.825483 c 0.379824,0.03568 0.759965,0.06748 1.144092,0.0673 0.09915,-1.99e-4 0.196794,-0.0184 0.295717,-0.02102 0.267061,-0.0066 0.53269,-0.0027 0.80054,-0.02717 0.02016,-0.0019 0.03757,-0.02195 0.05773,-0.02391 l 1.845063,2.821173 5.543277,-2.2961 -0.690214,-3.299528 c 0.0077,-0.0064 0.02119,-0.0055 0.02887,-0.01196 0.246827,-0.203085 0.47437,-0.441278 0.70572,-0.664391 0.01419,-0.01389 0.04359,-0.0099 0.05773,-0.02391 0.01615,-0.01578 0.0297,-0.03694 0.04578,-0.05279 0.0332,-0.03317 0.05878,-0.07206 0.09156,-0.105577 0.06291,-0.06357 0.133709,-0.117459 0.195093,-0.182284 0.175597,-0.184802 0.338971,-0.383902 0.50362,-0.580679 l 3.27016,0.708765 2.300083,-5.552891 -2.772695,-1.794268 c 0.04028,-0.403275 0.06049,-0.834443 0.06029,-1.242664 -1.99e-4,-0.09915 -0.0184,-0.196794 -0.02102,-0.295717 -0.0066,-0.267062 -0.0027,-0.53269 -0.02717,-0.80054 l 2.821174,-1.845064 -2.296101,-5.5432766 -3.299528,0.690214 c -0.176472,-0.213491 -0.367284,-0.412241 -0.558812,-0.614151 -0.06814,-0.07161 -0.124533,-0.154182 -0.194244,-0.223965 -0.264729,-0.26578 -0.56567,-0.519141 -0.856582,-0.761409 L 23.648471,2.3000834 18.095579,0 16.255529,2.8254834 c -0.344092,-0.03139 -0.69096,-0.04334 -1.033561,-0.04543 -0.05546,-4.31e-4 -0.112752,0.0017 -0.168273,0.0021 -0.0231,1.52e-4 -0.04664,-0.0053 -0.0697,-0.005 -0.339927,0.004 -0.685266,0.02029 -1.026557,0.05314 l -1.845062,-2.8211743 -5.5432783,2.2961013 0.690214,3.299528 c -0.02544,0.02115 -0.04938,0.04346 -0.07466,0.06475 -0.101971,0.08492 -0.19983,0.171095 -0.298619,0.258991 -0.150673,0.133664 -0.291577,0.275843 -0.435971,0.417358 -0.007,0.0069 -0.02192,0.0051 -0.02887,0.01196 -0.006,0.0059 -0.02283,0.006 -0.02887,0.01196 -0.115922,0.115048 -0.209643,0.250296 -0.320486,0.369521 -0.145856,0.156327 -0.314748,0.293465 -0.452882,0.458188 l -3.2582,-0.679893 -2.3000831,5.5528906 2.7846531,1.823138 c -0.0023,0.02347 -0.0028,0.04626 -0.005,0.0697 -0.0097,0.103148 -7.96e-4,0.204149 -0.0079,0.307677 -0.01955,0.297406 -0.03778,0.59816 -0.03552,0.894158 0.0021,0.342743 -0.0071,0.694279 0.02427,1.038515 L 0,18.048725 2.3080597,23.620874 z m 6.837323,-6.113115 c -0.07914,-0.191053 -0.149724,-0.391465 -0.210305,-0.589382 -0.003,-0.0099 -0.0089,-0.01893 -0.01196,-0.02887 -0.01212,-0.04023 -0.0076,-0.08698 -0.01896,-0.127443 -0.214056,-0.766121 -0.281454,-1.554412 -0.213912,-2.312954 0.01947,-0.211336 0.03252,-0.428089 0.07345,-0.639271 0.0016,-0.0084 -0.01366,-0.02045 -0.01196,-0.02887 0.04073,-0.210473 0.122802,-0.412624 0.183985,-0.617403 0.0042,-0.01394 0.01266,-0.02691 0.01691,-0.04083 0.06058,-0.197919 0.11681,-0.397479 0.195947,-0.588534 0.07209,-0.16882 0.116745,-0.327706 0.202949,-0.489961 0.01366,-0.02669 0.06066,-0.03832 0.07465,-0.06475 0.09711,-0.182787 0.20393,-0.36468 0.318434,-0.537796 0.112067,-0.168483 0.245532,-0.336784 0.3712233,-0.492013 0.116726,-0.144033 0.23669,-0.288076 0.366269,-0.422311 0.287837,-0.291758 0.578388,-0.5525526 0.924729,-0.7889326 0.008,-0.0056 0.0208,-0.0065 0.02887,-0.01196 0.02614,-0.01764 0.04821,-0.04744 0.07465,-0.06475 0.05356,-0.03617 0.106385,-0.06592 0.161269,-0.100625 0.105012,-0.0645 0.212875,-0.142252 0.322538,-0.201249 0.0093,-0.005 0.01948,-0.007 0.02887,-0.01196 0.009,-0.0048 0.01982,-0.0071 0.02887,-0.01196 0.03668,-0.01974 0.07846,-0.02882 0.115487,-0.04784 0.140685,-0.07055 0.273362,-0.147055 0.42111,-0.208254 0.08838,-0.03661 0.170853,-0.07521 0.259841,-0.10763 0.01189,-0.0044 0.0289,0.02117 0.04083,0.01691 0.01907,-0.0069 0.03864,-0.0172 0.05775,-0.02391 0.06807,-0.02408 0.13323,-0.0619 0.202099,-0.08371 0.01018,-0.0031 0.01868,-0.0089 0.02887,-0.01196 0.0097,-0.0029 0.01919,-0.009 0.02887,-0.01196 0.01925,-0.0058 0.03846,-0.01831 0.05773,-0.02391 0.02142,-0.0063 0.0482,0.01098 0.0697,0.005 0.01003,-0.0027 0.0188,-0.0093 0.02887,-0.01196 0.01902,-0.0054 0.03865,-0.01872 0.05773,-0.02391 0.04063,-0.01077 0.08658,-0.009 0.127443,-0.01896 0.06373,-0.01501 0.120961,-0.0298 0.185186,-0.04288 0.02122,-0.0046 0.04846,0.0093 0.0697,0.005 0.188821,-0.03659 0.378513,-0.08037 0.567517,-0.09977 0.0099,-0.0011 0.01893,-0.01087 0.02887,-0.01196 0.426359,-0.04198 0.84084,-0.02248 1.259578,0.01946 0.0319,0.0032 0.06665,-0.01064 0.09857,-0.007 0.156622,0.01716 0.314492,0.04654 0.470997,0.0755 0.03639,0.0066 0.07429,0.01464 0.110531,0.02187 0.40676,0.08288 0.782998,0.204739 1.165108,0.363014 0.278627,0.11541 0.529611,0.272052 0.782777,0.419909 0.271638,0.158442 0.542606,0.320861 0.789782,0.5184796 0.01099,0.0088 0.02994,0.0081 0.04083,0.01691 0.405096,0.328299 0.761231,0.714674 1.081748,1.141689 0.460983,0.616193 0.829036,1.301779 1.046224,2.035847 0.05682,0.189119 0.0898,0.365113 0.128646,0.555559 0.0041,0.02003 0.02004,0.03767 0.02392,0.05775 0.02853,0.147247 0.03388,0.30461 0.05194,0.452032 0.008,0.06605 0.0081,0.130747 0.01401,0.197147 0.04239,0.460302 0.04259,0.907695 -0.01246,1.35815 -0.02151,0.176627 -0.05585,0.335514 -0.09242,0.511827 -0.03969,0.194746 -0.08096,0.374846 -0.1382,0.564617 -0.0022,0.0074 0.01419,0.02146 0.01196,0.02887 -0.06058,0.197918 -0.145674,0.409439 -0.224812,0.600493 -0.07992,0.192943 -0.181868,0.37387 -0.277599,0.554711 -0.0071,0.01342 -0.0097,0.02753 -0.01691,0.04083 -0.02591,0.04819 -0.0526,0.08715 -0.07961,0.13445 -0.06446,0.112503 -0.09288,0.229982 -0.164173,0.338598 -0.005,0.0076 -0.02382,0.0045 -0.02887,0.01196 -0.008,0.01198 -0.0088,0.0289 -0.01691,0.04083 -0.0476,0.07028 -0.103842,0.13073 -0.154262,0.199198 -0.196654,0.270548 -0.41889,0.540739 -0.657882,0.779874 -0.007,0.0069 -0.02189,0.0052 -0.02887,0.01196 -0.103284,0.100982 -0.206268,0.206492 -0.315531,0.299821 -0.0074,0.0061 -0.02143,0.0058 -0.02887,0.01196 -0.0074,0.0064 -0.02139,0.0056 -0.02887,0.01196 -0.02893,0.02405 -0.03333,0.07002 -0.0627,0.09362 -0.0079,0.0064 -0.02088,0.0055 -0.02887,0.01196 -0.14737,0.119924 -0.312454,0.223104 -0.471847,0.330744 -0.0431,0.02857 -0.08844,0.06106 -0.132398,0.08867 -0.118348,0.07565 -0.226953,0.144663 -0.351409,0.213208 -0.0092,0.0049 -0.01973,0.0072 -0.02887,0.01196 -0.0092,0.0049 -0.01973,0.0072 -0.02887,0.01196 -0.0092,0.005 -0.01968,0.0071 -0.02888,0.01196 -0.06381,0.0339 -0.137221,0.05197 -0.202098,0.08371 -0.09357,0.04471 -0.181164,0.108335 -0.276753,0.14846 -0.01952,0.0083 -0.0381,0.01578 -0.05775,0.02392 -0.0098,0.0041 -0.01905,0.0079 -0.02887,0.01196 -0.05896,0.02409 -0.114004,0.0495 -0.173227,0.07175 -0.07786,0.02922 -0.163989,0.04056 -0.242929,0.0668 -0.0298,0.0099 -0.05678,0.02644 -0.08661,0.03588 -0.01018,0.0031 -0.01868,0.0089 -0.02887,0.01196 -0.01022,0.003 -0.01865,0.0089 -0.02887,0.01196 -0.190058,0.0571 -0.393037,0.101657 -0.584431,0.140605 -0.02955,0.0062 -0.05705,0.03013 -0.08661,0.03588 -0.07679,0.01452 -0.161123,-0.01457 -0.237976,-0.0029 -0.105219,0.01516 -0.218439,0.02301 -0.32459,0.03297 -0.02035,0.0018 -0.03741,0.02221 -0.05773,0.02391 -0.167686,0.01545 -0.325871,0.03277 -0.492862,0.03503 -0.0098,6.4e-5 -0.0191,0.01192 -0.02887,0.01196 -0.0097,1.18e-4 -0.01912,0.01193 -0.02887,0.01196 -0.0067,6.3e-5 -0.0054,-0.02889 -0.01196,-0.02887 -0.186745,-0.0013 -0.372899,-0.0223 -0.55761,-0.03963 -0.0091,-8.73e-4 -0.0197,0.01282 -0.02887,0.01196 -0.01397,-0.0012 -0.02686,-0.01557 -0.04083,-0.01691 -0.406068,-0.04252 -0.799027,-0.135462 -1.186975,-0.252484 -0.0074,-0.0022 -0.02146,0.01419 -0.02887,0.01196 -0.0071,-0.0022 -0.02183,0.01413 -0.02887,0.01196 -0.0074,-0.0022 -0.02147,0.0142 -0.02887,0.01196 -0.194862,-0.05927 -0.350449,-0.169893 -0.542748,-0.248734 -0.185628,-0.07689 -0.368308,-0.157212 -0.54275,-0.248735 -0.0201,-0.0107 -0.0328,-0.03488 -0.05279,-0.04578 -0.16645,-0.08954 -0.329332,-0.170586 -0.485008,-0.272649 -0.02365,-0.01564 -0.05823,-0.01783 -0.08166,-0.03383 -0.07736,-0.05224 -0.136597,-0.127936 -0.211155,-0.183137 -0.42325,-0.315086 -0.828461,-0.687641 -1.168362,-1.105811 -0.1112333,-0.137257 -0.2195793,-0.297698 -0.3187863,-0.442976 -0.01764,-0.02614 -0.04744,-0.0482 -0.06475,-0.07465 -0.108625,-0.164226 -0.208885,-0.310845 -0.301873,-0.483806 -0.103697,-0.192754 -0.194406,-0.387678 -0.280007,-0.594337 z"
     id="path3589"
     style="fill:#000000;fill-opacity:1;stroke:none" />
</svg>
