<?xml version="1.0" encoding="UTF-8" standalone="no"?>
<!-- Created with Inkscape (http://www.inkscape.org/) -->

<svg
   xmlns:svg="http://www.w3.org/2000/svg"
   xmlns="http://www.w3.org/2000/svg"
   version="1.1"
   width="744.09448"
   height="1052.3622"
   id="svg2">
  <defs
     id="defs4" />
  <rect
     width="83.44146"
     height="95.509964"
     x="65"
     y="70"
     id="rect3705"
     style="fill:#ff0000;fill-opacity:0.19607843;stroke:none" />
  <path
     d="m 58.265904,70 75.306866,0"
     id="path3709"
     style="fill:none;stroke:#0000ff;stroke-width:0.2;stroke-linecap:butt;stroke-linejoin:miter;stroke-miterlimit:4;stroke-opacity:0.49019608;stroke-dasharray:none" />
  <path
     d="m 68.222397,158.8763 75.247793,0"
     id="path3709-6"
     style="fill:none;stroke:#ff00ff;stroke-width:0.2;stroke-linecap:butt;stroke-linejoin:miter;stroke-miterlimit:4;stroke-opacity:0.60784314;stroke-dasharray:none" />
  <path
     d="m 65.50029,162.61587 c 7.90535,-5.33795 13.80935,-9.37882 17.61191,-12.17251 3.80258,-2.7438 7.80529,-6.18602 11.90807,-10.27678 4.10278,-4.09076 7.55512,-8.73027 10.35702,-13.86866 2.20149,-3.79144 4.10277,-8.18151 5.65382,-13.17024 1.55105,-4.93885 2.3516,-9.72802 2.5017,-14.267764 0,-4.240432 -0.55037,-8.2813 -1.70115,-12.072731 -1.10075,-3.841323 -3.00204,-6.98423 -5.70386,-9.528481 -2.70184,-2.49436 -6.2042,-3.74154 -10.55715,-3.74154 -4.20285,0 -8.15552,0.84808 -11.85804,2.49436 -3.65247,1.696171 -6.25423,4.390087 -7.70521,8.181518 0,0.349208 -0.20014,0.798199 -0.50033,1.446724 0.10007,0.7982 0.50033,1.396854 1.25084,1.845835 0.7505,0.448981 1.40094,0.648536 2.00135,0.648536 0.3002,0 1.15078,-0.149664 2.45166,-0.448991 1.35092,-0.299317 2.45166,-0.498872 3.35227,-0.498872 2.6518,0 5.00339,0.947863 7.15485,2.793687 2.10141,1.845835 3.15213,4.090759 3.15213,6.734793 0,1.895712 -0.55036,3.691666 -1.60108,5.337946 -1.05072,1.64628 -2.5017,2.99323 -4.35294,3.9411 -1.85126,0.99774 -3.90265,1.44672 -6.10415,1.44672 -4.0027,0 -7.40501,-1.19729 -10.2069,-3.64176 -2.75187,-2.49436 -4.15282,-5.637279 -4.15282,-9.578376 0,-5.038611 1.55105,-9.378807 4.60312,-13.070466 3.10211,-3.691659 7.00474,-6.435465 11.808,-8.28129 4.75322,-1.895715 9.55647,-2.793687 14.45979,-2.793687 5.35362,0 10.45708,1.346952 15.2103,4.090759 4.80325,2.693904 8.5558,6.435455 11.3577,11.074977 2.80189,4.689403 4.25287,9.678134 4.25287,15.065963 0,9.57836 -3.20217,18.45829 -9.60651,26.6897 -6.40433,8.23141 -14.30969,15.36529 -23.76609,21.45154 -6.30426,4.14063 -16.51117,9.72802 -30.5707,16.76212 l -0.70047,-2.59413 z m 69.49705,-77.175648 c 0,-1.795944 0.65044,-3.292559 1.95132,-4.489859 1.25085,-1.24718 2.8019,-1.845824 4.65315,-1.845824 1.60109,0 3.10211,0.698416 4.45303,2.045379 1.35091,1.297072 2.00135,2.843569 2.00135,4.53974 0,1.795943 -0.70048,3.342451 -2.00135,4.589631 -1.40095,1.197299 -2.952,1.795944 -4.70319,1.795944 -1.85126,0 -3.35227,-0.598645 -4.55308,-1.945608 -1.20081,-1.297061 -1.80123,-2.843569 -1.80123,-4.689403 z m 0,26.140948 c 0,-1.79595 0.65044,-3.34245 1.85127,-4.53975 1.25084,-1.24718 2.80189,-1.84583 4.7532,-1.84583 1.60109,0 3.05208,0.64855 4.45303,1.99549 1.30087,1.34697 2.00135,2.79369 2.00135,4.39009 0,1.94561 -0.65044,3.49211 -1.90128,4.73929 -1.30089,1.24719 -2.80191,1.89571 -4.5531,1.89571 -1.95131,0 -3.50236,-0.64852 -4.7532,-1.84583 -1.20083,-1.19728 -1.85127,-2.79368 -1.85127,-4.78917 z"
     id="path19-7"
     style="fill:#131516;fill-rule:evenodd;stroke:#131516;stroke-width:0.1498816" />
</svg>
