<?xml version="1.0" encoding="UTF-8" standalone="no"?>
<!-- Created with Inkscape (http://www.inkscape.org/) -->

<svg
   xmlns:svg="http://www.w3.org/2000/svg"
   xmlns="http://www.w3.org/2000/svg"
   version="1.1"
   width="744.09448"
   height="1052.3622"
   id="svg2">
  <defs
     id="defs4" />
  <rect
     width="80.341782"
     height="168.11075"
     x="16.336233"
     y="-1.4432364"
     id="rect3705"
     style="fill:#ff0000;fill-opacity:0.19607843;stroke:none" />
  <path
     d="m 13.767805,1.2464042 75.306872,0"
     id="path3709"
     style="fill:none;stroke:#0000ff;stroke-width:0.2236068;stroke-linecap:butt;stroke-linejoin:miter;stroke-miterlimit:4;stroke-opacity:0.49019608;stroke-dasharray:none" />
  <path
     d="m 29.746418,95.053545 6.149809,0"
     id="path3699"
     style="fill:none;stroke:#00ff00;stroke-width:0.86724073;stroke-linecap:butt;stroke-linejoin:miter;stroke-miterlimit:4;stroke-opacity:0.19607843;stroke-dasharray:none" />
  <path
     d="m 29.749202,95.106333 6.105477,0 0,-40.343743 c 0.501484,0.144311 9.425152,5.149523 13.081992,8.967692 6.957376,7.264314 13.528266,15.845027 15.971885,25.602284 2.668739,10.656149 0.356562,20.701744 -2.205771,32.881844 -1.71197,8.13789 -16.848299,43.76248 -16.848299,43.76248 0,0 9.320619,-12.21448 15.836795,-25.42407 3.258089,-6.6048 11.038471,-23.86932 12.177328,-31.41978 1.138856,-7.55046 1.746207,-15.288671 0.08033,-22.654014 C 71.43166,75.349381 65.567927,65.037142 59.107895,55.631098 53.548781,47.536824 43.739104,42.73493 38.916154,34.181558 36.119459,29.221694 35.710978,8.2359422 34.118414,1.2480962 l -4.369212,0.022216 0,93.8360208 z"
     id="path2820"
     style="fill:#000000;stroke:none" />
</svg>
