<?xml version="1.0" encoding="UTF-8" standalone="no"?>
<!-- Created with Inkscape (http://www.inkscape.org/) -->

<svg
   xmlns:svg="http://www.w3.org/2000/svg"
   xmlns="http://www.w3.org/2000/svg"
   version="1.1"
   width="744.09448"
   height="1052.3622"
   id="svg2">
  <defs
     id="defs4" />
  <rect
     width="22.040985"
     height="77.97493"
     x="21.812847"
     y="14.644608"
     id="rect3705"
     style="fill:#ff0000;fill-opacity:0.19607843;stroke:none" />
  <path
     d="m -7.5436482,75.811059 75.3068712,0"
     id="path3709"
     style="fill:none;stroke:#0000ff;stroke-width:0.13715945;stroke-linecap:butt;stroke-linejoin:miter;stroke-miterlimit:4;stroke-opacity:0.49019608;stroke-dasharray:none" />
  <path
     d="m -10.182426,92.251512 75.306876,0"
     id="path3709-6"
     style="fill:none;stroke:#0000ff;stroke-width:0.12760623;stroke-linecap:butt;stroke-linejoin:miter;stroke-miterlimit:4;stroke-opacity:0.5098038;stroke-dasharray:none" />
  <path
     d="m 25.561184,92.285002 c 0,-22.454 0,-74.742 0,-74.742 l -3.403,-2.016 c 0,0 0,17.532 0,35.346 0,15.306 0,30.819 0,35.604 l 0,5.808 3.403,0 z"
     id="path352" />
  <path
     d="m 25.561184,92.285002 c 17.001,-11.022 30.637,-43.511 0,-25.751 0,1.263 0,1.485 0,2.664 11.278,-7.874 25.25,-0.728 -1.012,21.494 1.012,-0.001 1.012,1.593 1.012,1.593 z"
     id="path354" />
</svg>
