<?xml version="1.0" encoding="UTF-8" standalone="no"?>
<!-- Created with Inkscape (http://www.inkscape.org/) -->

<svg
   xmlns:svg="http://www.w3.org/2000/svg"
   xmlns="http://www.w3.org/2000/svg"
   version="1.1"
   width="744.09448"
   height="1052.3622"
   id="svg2">
  <defs
     id="defs4" />
  <rect
     width="46.593483"
     height="38.250298"
     x="20.486448"
     y="16.127098"
     id="rect3705"
     style="fill:#ff0000;fill-opacity:0.19607843;stroke:none" />
  <path
     d="m 39.563138,44.682945 c 2.543745,-0.129999 5.089978,-0.828948 7.125,-2 5.426727,-3.122799 10.342894,-11.417005 7.15625,-16.71875 -3.186643,-5.301745 -12.481617,-4.707824 -17.75,-1.65625 -3.868969,2.241 -7.347569,6.833541 -7.75,11.25 l -0.0625,0.0625 0,9.03125 2.75,0 0,-2.375 c 2.178539,1.809565 5.338815,2.569401 8.53125,2.40625 z m -3.46875,-2.875 c -2.323154,-0.03068 -4.34749,-0.720027 -5.3125,-2.53125 -2.124292,-3.987077 3.511434,-9.085938 7.40625,-11.375 4.017676,-2.361271 11.474142,-4.924656 13.9375,-0.96875 2.552209,4.098593 -3.079575,10.152557 -7.28125,12.53125 -2.296185,1.299941 -5.763087,2.383192 -8.75,2.34375 z"
     id="rect2820-4-4"
     style="fill:#000000;fill-opacity:1;stroke:none" />
  <path
     d="m 11.295148,22.336352 75.306872,0"
     id="path3709"
     style="fill:none;stroke:#0000ff;stroke-width:0.13715945;stroke-linecap:butt;stroke-linejoin:miter;stroke-miterlimit:4;stroke-opacity:0.47058824;stroke-dasharray:none" />
  <path
     d="m 7.3277324,33.424683 75.3068766,0"
     id="path3709-6"
     style="fill:none;stroke:#ff00ff;stroke-width:0.12760623;stroke-linecap:butt;stroke-linejoin:miter;stroke-miterlimit:4;stroke-opacity:0.47058824;stroke-dasharray:none" />
  <path
     d="m 42.424315,14.31016 0,39.205528"
     id="path3643"
     style="fill:none;stroke:#00ff00;stroke-width:1.66234326px;stroke-linecap:butt;stroke-linejoin:miter;stroke-opacity:0.19607843" />
  <path
     d="m 31.024615,44.617842 -2.739072,0"
     id="path3699-7"
     style="fill:none;stroke:#00ff00;stroke-width:0.52361304;stroke-linecap:butt;stroke-linejoin:miter;stroke-miterlimit:4;stroke-opacity:0.19607843;stroke-dasharray:none" />
</svg>
