<?xml version="1.0" encoding="UTF-8" standalone="no"?>
<!-- Created with Inkscape (http://www.inkscape.org/) -->

<svg
   xmlns:svg="http://www.w3.org/2000/svg"
   xmlns="http://www.w3.org/2000/svg"
   version="1.1"
   width="744.09448"
   height="1052.3622"
   id="svg2">
  <defs
     id="defs4" />
  <rect
     width="123.65342"
     height="309.40137"
     x="64.069962"
     y="67.382141"
     id="rect3705"
     style="fill:#ff0000;fill-opacity:0.19607843;stroke:none" />
  <path
     d="m 144.338,402.886 c -12.247,10.001 -45.485,39.966 -39.831,96.052 33.06,-24.795 56.337,-50.271 39.831,-96.052 z"
     id="path414"
     style="fill:none" />
  <path
     d="m 99.491,579.224 c -11.345,6.049 -17.187,25.823 -6.42,41.846 -16.64,-17.148 -16.812,-34.164 -11.929,-45.594 2.907,-6.802 11.652,-14.402 22.289,-17.766 -1.697,-14.131 -3.159,-25.217 -3.725,-29.906 -0.036,-0.303 -0.077,-0.631 -0.121,-0.973 -30.388,21.182 -53.552,40.963 -50.585,62.01 4.506,31.955 21.377,44.998 39.724,45.941 5.901,0.303 14.031,-0.643 21.821,-3.264 -0.999,-17.09 -2.899,-36.631 -4.85,-54.254 -2.209,0.311 -4.313,0.954 -6.204,1.96 z"
     id="path416"
     style="fill:none" />
  <path
     d="m 113.51,577.512 c 2.262,22.799 3.692,40.419 4.509,50.64 0.006,0.071 0.013,0.146 0.018,0.219 9.099,-4.708 16.356,-12.252 16.791,-23.471 0.603,-15.62 -10.243,-25.227 -21.318,-27.388 z"
     id="path418"
     style="fill:none" />
  <path
     d="m 164.80243,242.76703 c -7.145,-5.424 -14.992,-7.072 -22.428,-6.375 -1.163,-10.783 -2.484,-22.367 -3.979,-34.586 6.197,-4.222 12.613,-8.508 19.104,-12.875 43.239,-29.103 29.435,-101.143997 19.604,-120.755997 -48.099,27.812 -51.177,83.347997 -48.884,116.473997 -13.937,10.069 -29.123003,20.261 -43.561003,31.89 -24.841,20.012 -22.266,55.002 -15.541,71.74 6.24,15.531 34.559003,43.795 72.996003,33.564 0.559,14.864 0.181,26.822 -1.835,32.293 -7.431,20.17 -31.667,18.967 -36.229,12.52 10.83,1.332 19.038,-10.558 18.076,-19.391 -1.283,-11.809 -12.682,-18.717 -21.414,-16.801 -9.660003,2.121 -17.496003,11.863 -15.903003,26.011 1.593,14.148 23.033003,25.44 46.574003,17.091 19.7,-6.987 19.937,-34.119 18.568,-54.305 0.436,-0.172 0.872,-0.34 1.31,-0.521 43.05,-17.817 32.795,-61.35 13.542,-75.973 z m 10.618,-159.585997 c 16.506,45.780997 -6.771,71.256997 -39.831,96.051997 -5.654,-56.086 27.584,-86.050997 39.831,-96.051997 z m -55.614,231.895997 c -18.347,-0.943 -35.218003,-13.986 -39.724003,-45.941 -2.967,-21.047 20.197003,-40.828 50.586003,-62.01 0.044,0.342 0.085,0.67 0.121,0.973 0.565,4.689 2.027,15.775 3.725,29.906 -10.637,3.363 -19.382,10.964 -22.289,17.766 -4.883,11.43 -4.711,28.445 11.929,45.594 -10.767,-16.022 -4.925,-35.797 6.42,-41.846 1.891,-1.006 3.995,-1.648 6.204,-1.959 1.95,17.623 3.851,37.164 4.85,54.254 -7.791,2.621 -15.921,3.566 -21.822,3.263 z m 46.103,-29.883 c -0.435,11.219 -7.692,18.763 -16.791,23.471 -0.005,-0.072 -0.012,-0.147 -0.018,-0.219 -0.816,-10.221 -2.247,-27.841 -4.509,-50.64 11.076,2.162 21.922,11.769 21.318,27.388 z"
     id="path420" />
  <path
     d="m 56.199191,240.40858 179.375919,0"
     id="path3709"
     style="fill:none;stroke:#00ffff;stroke-width:0.53261638;stroke-linecap:butt;stroke-linejoin:miter;stroke-miterlimit:4;stroke-opacity:0.56862745;stroke-dasharray:none" />
  <path
     d="m 63.443255,319.30729 179.375915,0"
     id="path3709-9"
     style="fill:none;stroke:#00ffff;stroke-width:0.53261638;stroke-linecap:butt;stroke-linejoin:miter;stroke-miterlimit:4;stroke-opacity:0.64705882;stroke-dasharray:none" />
</svg>
