<?xml version="1.0" encoding="UTF-8" standalone="no"?>
<!-- Created with Inkscape (http://www.inkscape.org/) -->

<svg
   xmlns:svg="http://www.w3.org/2000/svg"
   xmlns="http://www.w3.org/2000/svg"
   version="1.1"
   width="744.09448"
   height="1052.3622"
   id="svg2">
  <defs
     id="defs4" />
  <rect
     width="108.34689"
     height="305.51605"
     x="75.451736"
     y="88.473785"
     id="rect3705"
     style="fill:#ff0000;fill-opacity:0.19607843;stroke:none" />
  <path
     d="m 56.199191,240.40858 179.375919,0"
     id="path3709"
     style="fill:none;stroke:#00ffff;stroke-width:0.53261638;stroke-linecap:butt;stroke-linejoin:miter;stroke-miterlimit:4;stroke-opacity:0.56862745;stroke-dasharray:none" />
  <path
     d="m 63.443255,319.30729 179.375915,0"
     id="path3709-9"
     style="fill:none;stroke:#00ffff;stroke-width:0.53261638;stroke-linecap:butt;stroke-linejoin:miter;stroke-miterlimit:4;stroke-opacity:0.64705882;stroke-dasharray:none" />
  <path
     d="m 137.81753,257.34019 c -4.66051,0.95577 -8.97959,3.513 -13.10201,7.58657 -4.12758,4.14832 -6.33707,8.87985 -6.69827,14.11458 -0.22703,3.2904 0.63943,7.10709 2.53991,11.22052 1.89532,4.18824 4.99249,7.33231 9.13642,9.49669 1.40367,0.39741 2.02674,1.19178 1.95451,2.23872 -0.0258,0.37391 -0.57636,0.71162 -1.87136,0.92282 -6.70302,-2.19067 -12.07248,-6.24293 -16.04369,-12.00202 -3.96607,-5.83385 -5.78156,-12.2707 -5.43613,-19.46011 0.75635,-7.68703 3.57558,-14.70574 8.4525,-20.98139 4.95706,-6.34524 11.05434,-10.65821 18.29184,-12.93895 l -3.34074,-26.90448 c -12.20488,8.77553 -22.2616,18.07498 -30.25546,28.04273 -7.988704,9.89296 -12.516034,20.9264 -13.65695,33.09517 -0.22674,5.46942 0.531361,10.85653 2.279472,16.08653 1.742961,5.30478 4.571534,10.1585 8.475383,14.71073 7.887825,9.03483 18.603055,14.20731 31.990605,15.58186 4.59342,0.0164 9.52282,-0.47 14.86316,-1.454 l -7.57919,-59.35597 z m 5.44898,-0.3754 7.7264,58.31419 c 11.86433,-3.83993 18.33312,-13.53721 19.39605,-28.94229 -0.31864,-5.2065 -1.49801,-9.94643 -3.76298,-14.2353 -2.18485,-4.35848 -5.25622,-7.87647 -9.28907,-10.55914 -4.03285,-2.68268 -8.67301,-4.20504 -14.0704,-4.57746 z m -10.00129,-78.83356 c 2.57699,-1.32495 5.60622,-3.74577 8.93257,-7.198 3.32118,-3.37749 6.61384,-7.43314 9.7927,-12.02264 3.25897,-4.65909 5.9234,-9.43436 7.99327,-14.32577 2.06472,-4.81665 3.2144,-9.47101 3.51366,-13.80836 0.129,-1.86956 0.10808,-3.74945 -0.15322,-5.42052 -0.11411,-2.71283 -0.79423,-4.86361 -2.1205,-6.38275 -1.33143,-1.44436 -3.07896,-2.31632 -5.32786,-2.47149 -4.49783,-0.31034 -8.73679,2.17729 -12.71687,7.46287 -3.1039,4.59467 -5.81992,10.11775 -7.91288,16.4352 -2.17307,6.38705 -3.59135,12.75107 -4.19019,19.24675 -0.136,7.42926 0.64547,13.56936 2.18932,18.48471 z m -5.02199,4.0115 c -2.53746,-12.34745 -3.56018,-24.81577 -3.06814,-37.40499 0.63224,-8.07127 1.97799,-15.56735 4.03725,-22.48823 1.98431,-6.92606 4.5762,-12.8334 7.78601,-17.87158 3.13486,-5.043347 6.63176,-8.784374 10.41579,-11.22825 3.38855,-2.170603 5.80014,-3.281549 7.07452,-3.19362 0.97454,0.06725 1.77333,0.498044 2.47654,1.22281 0.7032,0.724767 1.60033,1.913729 2.69654,3.492129 8.04867,13.253651 11.49387,28.819521 10.26582,46.617621 -0.58307,8.45034 -2.27511,16.59878 -5.09161,24.66961 -2.73636,8.00123 -6.49644,15.55613 -11.26988,22.51515 -4.85356,7.02864 -10.38968,13.03337 -16.68849,18.08384 l 4.03907,29.88304 c 3.3242,-0.14632 5.59375,-0.29028 6.86814,-0.20235 5.69724,0.3931 10.71221,1.94134 15.26981,4.66022 4.5576,2.71889 8.38377,6.21382 11.39838,10.55443 3.01977,4.26579 5.24862,9.07814 6.68656,14.43701 1.36298,5.35371 1.96083,10.88002 1.56868,16.56344 -0.60886,8.82427 -3.49,16.74037 -8.63827,23.67353 -5.14824,6.93315 -12.48622,11.76165 -22.09405,14.55506 0.34688,3.70569 1.03002,9.08763 2.13471,16.00141 1.02457,6.98339 1.77235,12.52005 2.24336,16.60998 0.471,4.08995 0.50253,7.99931 0.23938,11.81319 -0.40762,5.90781 -2.19312,11.04422 -5.36167,15.48416 -3.24348,4.43475 -7.38928,7.75529 -12.51232,9.95653 -5.04808,2.20637 -10.53318,3.10523 -16.38035,2.70176 -8.24601,-0.56892 -15.28256,-3.38373 -21.11484,-8.36956 -5.827104,-5.0606 -8.69723,-11.49509 -8.450152,-19.4427 0.467409,-3.49919 1.519044,-6.73272 3.235034,-9.77011 1.715989,-3.0374 3.915443,-5.44031 6.673328,-7.20362 2.68808,-1.84325 5.83383,-2.67813 9.3726,-2.65936 2.92359,0.20173 5.64049,1.21571 8.15587,2.96716 2.43524,1.82107 4.38459,4.13456 5.76791,7.01012 1.30836,2.87038 1.92141,5.99334 1.69438,9.28374 -0.30444,4.41213 -2.0617,8.04776 -5.27182,10.90692 -3.21009,2.85917 -7.1416,4.16584 -11.71439,3.85029 l -1.72416,-0.11897 c 2.61399,4.68865 7.25171,7.33792 13.92349,7.7983 3.37336,0.23273 6.87329,-0.27717 10.41449,-1.38529 3.62133,-1.17777 6.67392,-2.8456 9.31284,-5.06794 2.63892,-2.22235 4.46355,-4.65112 5.32398,-7.2967 1.48594,-2.97813 2.37977,-7.19932 2.74611,-12.50884 0.24767,-3.58953 0.12054,-7.20491 -0.30647,-10.841 -0.43215,-3.56131 -1.15658,-8.34499 -2.1784,-14.27625 -1.02701,-5.85648 -1.76691,-10.41582 -2.15507,-13.52325 -4.57524,0.81139 -9.26424,1.08895 -14.13689,0.75275 -8.17105,-0.5638 -15.77879,-2.74177 -22.81808,-6.60867 -7.03928,-3.86692 -13.091282,-8.94306 -18.225799,-15.30837 -5.059561,-6.36015 -8.868102,-13.38535 -11.415315,-21.22516 -2.477399,-7.75988 -3.504688,-15.79538 -3.012073,-24.02657 0.826174,-7.60707 2.756142,-14.83742 5.929546,-21.53115 3.178565,-6.76852 7.080972,-13.1114 11.777006,-18.94867 4.696029,-5.8373 9.505885,-11.14078 14.424375,-15.83565 4.98831,-4.61491 11.49897,-10.55241 19.67672,-17.72735 z"
     id="path9"
     style="fill:#131516;fill-rule:evenodd;stroke:#131516;stroke-width:0.22515233" />
</svg>
