<?xml version="1.0" encoding="UTF-8" standalone="no"?>
<!-- Created with Inkscape (http://www.inkscape.org/) -->

<svg
   xmlns:svg="http://www.w3.org/2000/svg"
   xmlns="http://www.w3.org/2000/svg"
   version="1.1"
   width="744.09448"
   height="1052.3622"
   id="svg2">
  <defs
     id="defs4" />
  <rect
     width="13.221503"
     height="24.998636"
     x="34.154392"
     y="26.881062"
     id="rect3705"
     style="fill:#ff0000;fill-opacity:0.19607843;stroke:none" />
  <path
     d="m 11.88386,39.50713 75.306872,0"
     id="path3709"
     style="fill:none;stroke:#0000ff;stroke-width:0.13715945;stroke-linecap:butt;stroke-linejoin:miter;stroke-miterlimit:4;stroke-opacity:0.49019608;stroke-dasharray:none" />
  <path
     d="m 7.1845886,45.203582 75.3068764,0"
     id="path3709-6"
     style="fill:none;stroke:#0000ff;stroke-width:0.12760623;stroke-linecap:butt;stroke-linejoin:miter;stroke-miterlimit:4;stroke-opacity:0.5098038;stroke-dasharray:none" />
  <path
     d="m 38.009288,27.053009 c -0.179637,0.03976 -0.4862,0.292659 -0.53125,0.5625 l -1.59375,9.25 -0.1875,1.03125 -0.9375,5.4375 -0.1875,1.03125 c -0.08528,0.443129 0.369371,0.89778 0.8125,0.8125 l 1.03125,-0.1875 6.6875,-1.375 -1.21875,7.15625 c -0.06813,0.360201 0.20137,0.749479 0.5625,0.8125 l 1,0.1875 c 0.360201,0.06813 0.749479,-0.20137 0.8125,-0.5625 l 1.46875,-8.5625 0.1875,-1.03125 0.9375,-5.4375 0.1875,-1.03125 c 0.08528,-0.443129 -0.369371,-0.89778 -0.8125,-0.8125 l -1.0625,0.21875 -6.6875,1.34375 1.34375,-7.84375 c 0.06813,-0.360201 -0.202591,-0.74284 -0.5625,-0.8125 l -0.96875,-0.1875 c -0.09268,-0.01794 -0.101613,-0.03976 -0.28125,0 z m 6.21875,10.09375 -0.65625,3.96875 -6.21875,1.25 0.65625,-3.96875 6.21875,-1.25 z"
     id="path2854"
     style="font-size:medium;font-style:normal;font-variant:normal;font-weight:normal;font-stretch:normal;text-indent:0;text-align:start;text-decoration:none;line-height:normal;letter-spacing:normal;word-spacing:normal;text-transform:none;direction:ltr;block-progression:tb;writing-mode:lr-tb;text-anchor:start;color:#000000;fill:#000000;fill-opacity:1;stroke:none;stroke-width:1px;marker:none;visibility:visible;display:inline;overflow:visible;enable-background:accumulate;font-family:Andale Mono;-inkscape-font-specification:Andale Mono" />
</svg>
