<?xml version="1.0" encoding="UTF-8" standalone="no"?>
<!-- Created with Inkscape (http://www.inkscape.org/) -->

<svg
   xmlns:svg="http://www.w3.org/2000/svg"
   xmlns="http://www.w3.org/2000/svg"
   version="1.1"
   width="744.09448"
   height="1052.3622"
   id="svg2">
  <defs
     id="defs4" />
  <rect
     width="63.153698"
     height="117.91142"
     x="97.372559"
     y="202.25768"
     id="rect3705"
     style="fill:#ff0000;fill-opacity:0.19607843;stroke:none" />
  <path
     d="m 56.002953,214.50523 179.375927,0"
     id="path3709"
     style="fill:none;stroke:#0ff0ff;stroke-width:0.53261638;stroke-linecap:butt;stroke-linejoin:miter;stroke-miterlimit:4;stroke-opacity:0.52941176;stroke-dasharray:none" />
  <path
     d="m 50.605835,240.95235 179.375915,0"
     id="path3709-9"
     style="fill:none;stroke:#00ffff;stroke-width:0.53261638;stroke-linecap:butt;stroke-linejoin:miter;stroke-miterlimit:4;stroke-opacity:0.56862745;stroke-dasharray:none" />
  <path
     d="m 120.0625,215.3125 c -0.39121,-0.0137 -0.76974,0 -1.125,0.0312 -8.63407,0.76368 -16.70788,11.72478 -10.5625,19.84375 8.64605,11.42225 24.23699,1.76139 35.65625,-3.65625 -2.89328,10.54839 -4.57981,15.65626 -5.53125,18.21875 -3.93916,1.93974 -7.93579,4.20121 -12.03125,6 1.25483,-9.47562 -9.56582,-14.78438 -15.25,-14.28125 -8.63407,0.76368 -16.70788,11.72478 -10.5625,19.84375 8.64605,11.42225 24.26824,1.73014 35.6875,-3.6875 -1.85388,13.0619 -4.88096,24.0286 -7.83629,33.93492 l 10.6657,0.20815 c 0.67795,-13.00978 4.01023,-26.58394 5.85809,-39.20557 1.41874,-9.69059 7.15625,-28.5 7.15625,-28.5 l -6.25,-0.4375 c -3.16553,1.60223 -5.90111,3.64138 -11.75,6.03125 1.1764,-8.88339 -8.25689,-14.13895 -14.125,-14.34375 z"
     id="path410" />
</svg>
