<?xml version="1.0" encoding="UTF-8" standalone="no"?>
<!-- Created with Inkscape (http://www.inkscape.org/) -->

<svg
   xmlns:svg="http://www.w3.org/2000/svg"
   xmlns="http://www.w3.org/2000/svg"
   version="1.1"
   width="744.09448"
   height="1052.3622"
   id="svg2">
  <defs
     id="defs4" />
  <rect
     width="63.153698"
     height="133.45264"
     x="97.372559"
     y="186.71646"
     id="rect3705"
     style="fill:#ff0000;fill-opacity:0.19607843;stroke:none" />
  <path
     d="m 126.8125,187.90625 c -0.39121,-0.0137 -0.76974,0 -1.125,0.0312 -8.63407,0.76368 -16.70788,11.72478 -10.5625,19.84375 8.64605,11.42225 24.23699,1.76139 35.65625,-3.65625 -1.08161,3.94338 -3.94753,16.75937 -4.75,19.5 l -0.0937,0 c -3.16553,1.60223 -5.90111,3.64138 -11.75,6.03125 1.1764,-8.88339 -8.25689,-14.13895 -14.125,-14.34375 -0.39121,-0.0137 -0.76974,0 -1.125,0.0312 -8.63407,0.76368 -16.70788,11.72478 -10.5625,19.84375 8.64605,11.42225 24.23699,1.76139 35.65625,-3.65625 -2.89328,10.54839 -4.57981,15.65626 -5.53125,18.21875 -3.93916,1.93974 -7.93579,4.20121 -12.03125,6 1.25483,-9.47562 -9.56582,-14.78438 -15.25,-14.28125 -8.63407,0.76368 -16.70788,11.72478 -10.5625,19.84375 8.64605,11.42225 24.26824,1.73014 35.6875,-3.6875 -1.85388,13.0619 -4.88842,24.03118 -7.84375,33.9375 l 10.6875,0.21875 c 0.67795,-13.00978 3.99589,-26.59712 5.84375,-39.21875 1.41874,-9.69059 7.15625,-28.5 7.15625,-28.5 2.22921,-9.13585 4.50251,-18.27081 6.75,-27.40625 l -6.25,-0.4375 c -3.16553,1.60223 -5.90111,3.64138 -11.75,6.03125 1.1764,-8.88339 -8.25689,-14.13895 -14.125,-14.34375 z"
     id="path2818"
     style="fill:none;stroke:#000000;stroke-opacity:1" />
  <path
     d="m 56.002953,214.50523 179.375927,0"
     id="path3709"
     style="fill:none;stroke:#0ff0ff;stroke-width:0.53261638;stroke-linecap:butt;stroke-linejoin:miter;stroke-miterlimit:4;stroke-opacity:0.52941165;stroke-dasharray:none" />
  <path
     d="m 50.605835,240.95235 179.375915,0"
     id="path3709-9"
     style="fill:none;stroke:#00ffff;stroke-width:0.53261638;stroke-linecap:butt;stroke-linejoin:miter;stroke-miterlimit:4;stroke-opacity:0.56862745;stroke-dasharray:none" />
  <path
     d="m 130.93348,191.00031 c -0.39121,-0.0137 -0.76974,0 -1.125,0.0312 -8.63407,0.76368 -14.54927,8.63072 -8.40389,16.74969 8.64605,11.42225 17.9574,-1.57465 29.37666,-6.99229 -1.08161,3.94338 -3.94753,20.09541 -4.75,22.83604 l -0.0937,0 c -3.16553,1.60223 -5.90111,3.64138 -11.75,6.03125 1.1764,-8.88339 -4.13591,-11.04489 -10.00402,-11.24969 -0.39121,-0.0137 -0.76974,0 -1.125,0.0312 -8.63407,0.76368 -14.54927,8.63072 -8.40389,16.74969 8.64605,11.42225 17.9574,-1.57465 29.37666,-6.99229 l -5.53125,21.55479 c -3.93916,1.93974 -7.93579,4.20121 -12.03125,6 1.25483,-9.47562 -5.44484,-11.69032 -11.12902,-11.18719 -8.63407,0.76368 -14.54926,8.63072 -8.40389,16.74969 8.64605,11.42225 17.98865,-1.6059 29.40791,-7.02354 l -7.84375,37.27354 5.19285,0.21875 9.17979,-39.21875 7.15625,-28.5 6.75,-27.40625 -4.09139,-0.4375 c -3.16553,1.60223 -5.90111,3.64138 -11.75,6.03125 1.1764,-8.88339 -4.13591,-11.04489 -10.00402,-11.24969 l -5e-5,1e-4 z"
     id="path410" />
</svg>
