<?xml version="1.0" encoding="UTF-8" standalone="no"?>
<!-- Created with Inkscape (http://www.inkscape.org/) -->

<svg
   xmlns:svg="http://www.w3.org/2000/svg"
   xmlns="http://www.w3.org/2000/svg"
   version="1.1"
   width="744.09448"
   height="1052.3622"
   id="svg2">
  <defs
     id="defs4" />
  <rect
     width="47.612484"
     height="55.837479"
     x="97.372559"
     y="238.89053"
     id="rect3705"
     style="fill:#ff0000;fill-opacity:0.19607843;stroke:none" />
  <path
     d="m 54.534061,240.6861 179.375919,0"
     id="path3709"
     style="fill:none;stroke:#0ff0ff;stroke-width:0.53261638;stroke-linecap:butt;stroke-linejoin:miter;stroke-miterlimit:4;stroke-opacity:0.5294117;stroke-dasharray:none" />
  <path
     d="m 49.844693,267.96578 179.375917,0"
     id="path3709-9"
     style="fill:none;stroke:#0ff0ff;stroke-width:0.53261638;stroke-linecap:butt;stroke-linejoin:miter;stroke-miterlimit:4;stroke-opacity:0.56862745;stroke-dasharray:none" />
  <path
     d="m 112.34375,241.4375 c -0.39121,-0.0137 -0.76974,0 -1.125,0.0312 -8.63407,0.76368 -16.70788,11.72478 -10.5625,19.84375 8.64605,11.42225 24.26824,1.73014 35.6875,-3.6875 -1.9918,14.03364 -4.72252,26.78655 -7.96875,37.09375 l 8.90625,0 c 0.2849,-8.89659 3.1471,-20.89706 7.1875,-44.5625 L 138.25,249.7187 c -3.16553,1.60223 -5.93236,3.64138 -11.78125,6.03125 1.1764,-8.88339 -8.25689,-14.1077 -14.125,-14.3125 z"
     id="path410" />
</svg>
