<?xml version="1.0" encoding="UTF-8" standalone="no"?>
<!-- Created with Inkscape (http://www.inkscape.org/) -->

<svg
   xmlns:svg="http://www.w3.org/2000/svg"
   xmlns="http://www.w3.org/2000/svg"
   version="1.1"
   width="744.09448"
   height="1052.3622"
   id="svg2">
  <defs
     id="defs4" />
  <rect
     width="46.593483"
     height="38.250298"
     x="20.486448"
     y="16.127098"
     id="rect3705"
     style="fill:#ff0000;fill-opacity:0.19607843;stroke:none" />
  <path
     d="m 43.3125,22.1875 c -2.543745,0.129999 -5.089978,0.828948 -7.125,2 -5.426727,3.122799 -10.342894,11.417005 -7.15625,16.71875 3.186643,5.301745 12.481617,4.707824 17.75,1.65625 3.878254,-2.246378 7.389166,-6.857733 7.78125,-11.28125 l 0.03125,-0.03125 0,-0.21875 c 0.02323,-0.374917 0.0242,-0.754914 0,-1.125 l 0,-7.65625 0,-0.03125 -2.75,0 0,0.03125 0,2.3125 c -2.178088,-1.799048 -5.351569,-2.537499 -8.53125,-2.375 z"
     id="rect2820-4-4"
     style="fill:#000000;fill-opacity:1;stroke:none" />
  <path
     d="m 11.295148,22.336352 75.306872,0"
     id="path3709"
     style="fill:none;stroke:#0000ff;stroke-width:0.13715945;stroke-linecap:butt;stroke-linejoin:miter;stroke-miterlimit:4;stroke-opacity:0.47058824;stroke-dasharray:none" />
  <path
     d="m 7.3277324,33.424683 75.3068766,0"
     id="path3709-6"
     style="fill:none;stroke:#ff00ff;stroke-width:0.12760623;stroke-linecap:butt;stroke-linejoin:miter;stroke-miterlimit:4;stroke-opacity:0.47058824;stroke-dasharray:none" />
  <path
     d="m 42.424315,14.31016 0,39.205528"
     id="path3643"
     style="fill:none;stroke:#00ff00;stroke-width:1.66234326px;stroke-linecap:butt;stroke-linejoin:miter;stroke-opacity:0.19607843" />
  <path
     d="m 51.847609,22.250445 2.739072,0"
     id="path3699-7"
     style="fill:none;stroke:#00ff00;stroke-width:0.52361304;stroke-linecap:butt;stroke-linejoin:miter;stroke-miterlimit:4;stroke-opacity:0.19607843;stroke-dasharray:none" />
</svg>
