<?xml version="1.0" encoding="UTF-8" standalone="no"?>
<!-- Created with Inkscape (http://www.inkscape.org/) -->

<svg
   xmlns:svg="http://www.w3.org/2000/svg"
   xmlns="http://www.w3.org/2000/svg"
   version="1.1"
   width="744.09448"
   height="1052.3622"
   id="svg2">
  <defs
     id="defs4" />
  <rect
     width="26.750685"
     height="27.149429"
     x="26.522545"
     y="19.94302"
     id="rect3705"
     style="fill:#ff0000;fill-opacity:0.19607843;stroke:none" />
  <path
     d="m 11.88386,33.620006 75.306872,0"
     id="path3709"
     style="fill:none;stroke:#0000ff;stroke-width:0.13715945;stroke-linecap:butt;stroke-linejoin:miter;stroke-miterlimit:4;stroke-opacity:0.49019608;stroke-dasharray:none" />
  <path
     d="m 7.1845886,45.448879 75.3068764,0"
     id="path3709-6"
     style="fill:none;stroke:#0000ff;stroke-width:0.12760623;stroke-linecap:butt;stroke-linejoin:miter;stroke-miterlimit:4;stroke-opacity:0.5098038;stroke-dasharray:none" />
  <path
     d="m 37.8125,20.875 -4.59375,0.0625 -0.78125,3.40625 -5.28125,-1.21875 0.0625,5.46875 4.0625,0.78125 -1,4.46875 -3.375,-0.78125 0.0625,5.5 2.125,0.40625 -1.75,7.65625 5.46875,-0.0625 1.28125,-6.625 7.34375,1.4375 -1.21875,5.34375 5.46875,-0.0625 0.84375,-4.28125 6.125,1.1875 -0.09375,-4.59375 -5.15625,-1.1875 1,-5.0625 4.46875,0.875 -0.0625,-4.5625 -3.53125,-0.8125 L 50.6875,21 l -4.59375,0.0625 -1.40625,6.09375 -7.75,-1.78125 0.875,-4.5 z m -1.84375,9.40625 7.65625,1.5 -1.09375,4.875 -7.46875,-1.71875 0.90625,-4.65625 z"
     id="path2826"
     style="fill:#000000;fill-opacity:1;stroke:none" />
</svg>
