<?xml version="1.0" encoding="UTF-8" standalone="no"?>
<!-- Created with Inkscape (http://www.inkscape.org/) -->

<svg
   xmlns:svg="http://www.w3.org/2000/svg"
   xmlns="http://www.w3.org/2000/svg"
   version="1.1"
   width="744.09448"
   height="1052.3622"
   id="svg2">
  <defs
     id="defs4" />
  <rect
     width="15.92734"
     height="32.491726"
     x="33.044304"
     y="17.375944"
     id="rect3705"
     style="fill:#ff0000;fill-opacity:0.19607843;stroke:none" />
  <path
     d="m 11.295148,21.376603 75.306872,0"
     id="path3709"
     style="fill:none;stroke:#0000ff;stroke-width:0.13715945;stroke-linecap:butt;stroke-linejoin:miter;stroke-miterlimit:4;stroke-opacity:0.47058824;stroke-dasharray:none" />
  <path
     d="m 6.8902324,45.80238 75.3068766,0"
     id="path3709-6"
     style="fill:none;stroke:#0000ff;stroke-width:0.12760623;stroke-linecap:butt;stroke-linejoin:miter;stroke-miterlimit:4;stroke-opacity:0.50980386;stroke-dasharray:none" />
  <path
     d="m 45.1875,17.53125 -2.46875,0.90625 0,7.125 -3.53125,1.28125 0,-7.125 -2.5,0.90625 0,7.125 -3.53125,1.28125 0,3.9375 3.53125,-1.28125 0,6.84375 -3.53125,1.28125 0,3.90625 3.53125,-1.28125 0,7.3125 2.5,-0.875 0,-7.34375 3.53125,-1.28125 0,7.3125 2.46875,-0.875 0,-7.34375 3.53125,-1.28125 0,-3.9375 -3.53125,1.28125 0,-6.84375 3.53125,-1.28125 0,-3.90625 -3.53125,1.28125 0,-7.125 z m -2.46875,11.9375 0,6.84375 -3.53125,1.28125 0,-6.84375 3.53125,-1.28125 z"
     id="rect2818"
     style="fill:#000000;fill-opacity:1;stroke:none" />
</svg>
