<?xml version="1.0" encoding="UTF-8" standalone="no"?>
<!-- Created with Inkscape (http://www.inkscape.org/) -->

<svg
   xmlns:svg="http://www.w3.org/2000/svg"
   xmlns="http://www.w3.org/2000/svg"
   version="1.1"
   width="744.09448"
   height="1052.3622"
   id="svg2">
  <defs
     id="defs4" />
  <rect
     width="40.256939"
     height="179.32655"
     x="30.212317"
     y="-1.4432364"
     id="rect3705"
     style="fill:#ff0000;fill-opacity:0.19607843;stroke:none" />
  <path
     d="m 13.767805,1.2464042 75.306872,0"
     id="path3709"
     style="fill:none;stroke:#0000ff;stroke-width:0.2236068;stroke-linecap:butt;stroke-linejoin:miter;stroke-miterlimit:4;stroke-opacity:0.49019608;stroke-dasharray:none" />
  <path
     d="m 31.151255,0.59926821 0,32.18749979 0,61.65625 0,32.187502 6.125,0 0,-32.187502 0,-2.883338 c 12.888154,20.8241 21.28397,31.20111 24.698941,41.9181 3.414971,10.717 2.143452,20.98904 -9.332123,43.17312 5.164484,-4.50028 7.548903,-8.21756 10.217284,-12.8383 2.668381,-4.62074 5.026166,-9.24739 6.008926,-14.33426 1.215,-6.28896 0.611799,-12.87253 -0.293209,-19.21353 -0.702624,-4.92298 -2.196171,-8.00437 -3.954418,-14.38498 C 70.896816,98.793771 62.78254,71.487601 53.265469,56.855359 39.190661,32.067869 39.559829,27.620984 35.526255,0.59926821 l -4.375,0 z m 6.226207,51.65482679 16.954344,29.92416 c 5.460935,9.638467 10.12717,19.186305 9.0711,31.201575 L 37.570042,65.693018 37.377462,52.254095 z"
     id="path2820-0"
     style="fill:#000000;stroke:none" />
  <path
     d="m 31.173813,126.47773 6.105306,0"
     id="path3699"
     style="fill:none;stroke:#00ff00;stroke-width:0.86409706;stroke-linecap:butt;stroke-linejoin:miter;stroke-miterlimit:4;stroke-opacity:0.19607843;stroke-dasharray:none" />
</svg>
