<?xml version="1.0" encoding="UTF-8" standalone="no"?>
<!-- Created with Inkscape (http://www.inkscape.org/) -->

<svg
   xmlns:svg="http://www.w3.org/2000/svg"
   xmlns="http://www.w3.org/2000/svg"
   version="1.1"
   width="744.09448"
   height="1052.3622"
   id="svg2">
  <defs
     id="defs4" />
  <rect
     width="46.497093"
     height="198.91565"
     x="30.212317"
     y="-1.4432364"
     id="rect3705"
     style="fill:#ff0000;fill-opacity:0.19607843;stroke:none" />
  <path
     d="m 13.767805,1.2464042 75.306872,0"
     id="path3709"
     style="fill:none;stroke:#0000ff;stroke-width:0.2236068;stroke-linecap:butt;stroke-linejoin:miter;stroke-miterlimit:4;stroke-opacity:0.49019608;stroke-dasharray:none" />
  <path
     d="m 31.151255,0.59926821 0,32.18749979 0,61.65625 0,32.187502 6.125,0 0,-32.187502 0,-8.15625 c 0.50148,0.144311 9.40566,5.150581 13.0625,8.96875 6.95738,7.264312 13.52513,15.836492 15.96875,25.593752 2.66873,10.65614 0.37484,20.6949 -2.1875,32.875 -1.71197,8.13788 -16.84375,43.78125 -16.84375,43.78125 0,0 9.29633,-12.22791 15.8125,-25.4375 3.25809,-6.6048 11.04864,-23.85579 12.1875,-31.40625 1.13885,-7.55046 1.75966,-15.29091 0.09375,-22.65625 -1.00713,-4.45288 -2.56639,-8.78325 -4.46875,-12.96875 3.85768,-8.010994 2.87021,-18.466451 1.15625,-27.218752 -1.67716,-8.564443 -5.07122,-13.437706 -11.53125,-22.84375 -5.55912,-8.094274 -15.3958,-12.915378 -20.21875,-21.46875 -2.79669,-4.959864 -3.18868,-25.9184038 -4.78125,-32.90624979 l -4.375,0 z m 6.78125,53.87499979 c 1.8065,0.927101 9.10228,5.144022 12.40625,8.59375 6.95738,7.264314 10.54967,10.938264 13.75,17.6875 3.48105,7.341256 4.38331,7.255579 5.59375,21.781252 -2.6469,-5.356971 -5.80381,-10.49372 -9.15625,-15.375002 -5.55912,-8.094274 -15.3958,-12.915378 -20.21875,-21.46875 -1.08204,-1.918969 -1.80106,-6.240752 -2.375,-11.21875 z"
     id="path2820-0"
     style="fill:#000000;stroke:none" />
  <path
     d="m 31.173813,126.47773 6.105306,0"
     id="path3699"
     style="fill:none;stroke:#00ff00;stroke-width:0.86409706;stroke-linecap:butt;stroke-linejoin:miter;stroke-miterlimit:4;stroke-opacity:0.19607843;stroke-dasharray:none" />
</svg>
