<?xml version="1.0" encoding="UTF-8" standalone="no"?>
<!-- Created with Inkscape (http://www.inkscape.org/) -->

<svg
   xmlns:svg="http://www.w3.org/2000/svg"
   xmlns="http://www.w3.org/2000/svg"
   version="1.1"
   width="744.09448"
   height="1052.3622"
   id="svg2">
  <defs
     id="defs4" />
  <rect
     width="48.149269"
     height="198.13509"
     x="35.207706"
     y="-1.4432364"
     id="rect3705"
     style="fill:#ff0000;fill-opacity:0.19607843;stroke:none" />
  <path
     d="m 19.066217,195.49695 75.306872,0"
     id="path3709"
     style="fill:none;stroke:#0000ff;stroke-width:0.2236068;stroke-linecap:butt;stroke-linejoin:miter;stroke-miterlimit:4;stroke-opacity:0.49019608;stroke-dasharray:none" />
  <path
     d="m 36.005793,196.51255 0,-32.1875 0,-61.65624 0,-32.187508 6.125,0 0,32.187508 0,8.15625 c 0.50148,-0.14432 9.40566,-5.15059 13.0625,-8.96875 6.95738,-7.264318 13.52513,-15.836498 15.96875,-25.593758 2.66873,-10.65614 0.37484,-20.6949 -2.1875,-32.875 -1.71197,-8.13788 -16.84375,-43.78125341 -16.84375,-43.78125341 0,0 9.29633,12.22791441 15.8125,25.43750341 3.25809,6.6048 11.04864,23.85579 12.1875,31.40625 1.13885,7.55046 1.75966,15.29091 0.09375,22.65625 -1.00713,4.45288 -2.56639,8.78325 -4.46875,12.96875 3.85768,8.010988 2.87021,18.466448 1.15625,27.218758 -1.67716,8.56443 -5.07122,13.43769 -11.53125,22.84374 -5.55912,8.09427 -15.3958,12.91537 -20.21875,21.46875 -2.79669,4.95986 -3.18868,25.9184 -4.78125,32.90625 l -4.375,0 z m 6.78125,-53.875 c 1.8065,-0.92711 9.10228,-5.14403 12.40625,-8.59375 6.95738,-7.26432 10.54967,-10.93826 13.75,-17.68749 3.48105,-7.34126 4.38331,-7.25558 5.59375,-21.781258 -2.6469,5.35697 -5.80381,10.493718 -9.15625,15.375008 -5.55912,8.09427 -15.3958,12.91537 -20.21875,21.46874 -1.08204,1.91896 -1.80106,6.24075 -2.375,11.21875 z"
     id="path2820-0"
     style="fill:#000000;stroke:none" />
  <path
     d="m 36.031471,70.488046 6.10421,0"
     id="path3699"
     style="fill:none;stroke:#00ff00;stroke-width:0.86401951;stroke-linecap:butt;stroke-linejoin:miter;stroke-miterlimit:4;stroke-opacity:0.19607843;stroke-dasharray:none" />
</svg>
