<?xml version="1.0" encoding="UTF-8" standalone="no"?>
<!-- Created with Inkscape (http://www.inkscape.org/) -->

<svg
   xmlns:svg="http://www.w3.org/2000/svg"
   xmlns="http://www.w3.org/2000/svg"
   version="1.1"
   width="744.09448"
   height="1052.3622"
   id="svg2">
  <defs
     id="defs4" />
  <rect
     width="44.142242"
     height="199.30812"
     x="30.212317"
     y="-1.4432364"
     id="rect3705"
     style="fill:#ff0000;fill-opacity:0.19607843;stroke:none" />
  <path
     d="m 13.767805,1.2464042 75.306872,0"
     id="path3709"
     style="fill:none;stroke:#0000ff;stroke-width:0.2236068;stroke-linecap:butt;stroke-linejoin:miter;stroke-miterlimit:4;stroke-opacity:0.49019608;stroke-dasharray:none" />
  <path
     d="m 31.151255,0.59926821 0,32.18749979 0,61.65625 0,32.187502 6.125,0 0,-32.187502 0,-2.883338 C 63.052563,133.20789 70.18978,145.28786 47.23863,189.65602 67.896565,171.65491 71.654646,141.40228 64.621656,115.87983 70.896816,98.793771 62.78254,71.487601 53.265469,56.855359 39.190661,32.067869 39.559829,27.620984 35.526255,0.59926821 l -4.375,0 z m 6.226207,51.65482679 16.954344,29.92416 c 5.460935,9.638467 10.12717,19.186305 9.0711,31.201575 L 37.570042,65.693018 37.377462,52.254095 z"
     id="path2820-0"
     style="fill:#000000;stroke:none" />
  <path
     d="m 31.173813,126.47773 6.105306,0"
     id="path3699"
     style="fill:none;stroke:#00ff00;stroke-width:0.86409706;stroke-linecap:butt;stroke-linejoin:miter;stroke-miterlimit:4;stroke-opacity:0.19607843;stroke-dasharray:none" />
</svg>
