<?xml version="1.0" encoding="UTF-8" standalone="no"?>
<!-- Created with Inkscape (http://www.inkscape.org/) -->

<svg
   xmlns:svg="http://www.w3.org/2000/svg"
   xmlns="http://www.w3.org/2000/svg"
   version="1.1"
   width="744.09448"
   height="1052.3622"
   id="svg2">
  <defs
     id="defs4" />
  <rect
     width="92.844139"
     height="153.84439"
     x="80.946381"
     y="202.5352"
     id="rect3705"
     style="fill:#ff0000;fill-opacity:0.19607843;stroke:none" />
  <path
     d="m 49.919592,221.17731 179.375918,0"
     id="path3709"
     style="fill:none;stroke:#00ffff;stroke-width:0.53261638;stroke-linecap:butt;stroke-linejoin:miter;stroke-miterlimit:4;stroke-opacity:0.52941165;stroke-dasharray:none" />
  <path
     d="m 61.873355,337.75361 179.375915,0"
     id="path3709-9"
     style="fill:none;stroke:#00ffff;stroke-width:0.53261638;stroke-linecap:butt;stroke-linejoin:miter;stroke-miterlimit:4;stroke-opacity:0.60784314;stroke-dasharray:none" />
  <path
     d="m 122.36221,203.84646 c -0.53134,0.20436 -0.94003,0.4496 -1.22607,0.73564 -0.28617,0.28617 -0.53134,0.6948 -0.73563,1.22601 -0.209,0.24079 -0.33606,0.95824 -0.38147,2.15238 -0.0454,1.19431 -0.0636,3.3831 -0.0547,6.56611 0.003,3.10153 -0.003,5.23574 -0.0265,6.40272 -0.0232,1.16701 -0.0864,1.72104 -0.19078,1.66195 -3.28761,1.04446 -5.92139,1.9526 -7.90118,2.72457 -1.97979,0.77194 -3.85068,1.68017 -5.61246,2.7245 -4.04143,2.28862 -7.619685,5.12216 -10.734726,8.50056 -3.115081,3.37842 -5.712455,7.30178 -7.792181,11.76997 -1.616541,3.1378 -2.906171,6.45263 -3.86883,9.9446 -0.96272,3.49197 -1.707391,7.29721 -2.234165,11.41574 -0.217937,2.46118 -0.326911,5.76698 -0.326911,9.91737 7.1e-5,4.15034 0.108974,7.45613 0.326911,9.91728 0.758357,6.18467 2.075218,11.74271 3.950572,16.6742 1.875466,4.93137 4.336615,9.39957 7.383589,13.40467 1.684607,2.21138 3.709842,4.32743 6.075643,6.34819 2.365798,2.02067 4.772458,3.75529 7.220098,5.20387 1.76178,1.04434 3.63267,1.9525 5.61246,2.72454 1.97986,0.77187 4.61357,1.68007 7.90118,2.7245 0.10433,-0.059 0.16792,0.49494 0.19078,1.66199 0.0232,1.16694 0.0331,3.30115 0.0265,6.40265 -0.0101,3.46918 0.0101,5.73961 0.0547,6.81138 0.0454,1.07155 0.17257,1.70726 0.38147,1.90711 0.39498,0.95809 0.96718,1.60286 1.71647,1.93446 0.74922,0.3314 1.92076,0.48579 3.51462,0.46317 1.48936,0.0232 2.59735,-0.13183 3.32394,-0.46317 0.7265,-0.3316 1.2896,-0.97637 1.68922,-1.93446 0.20899,-0.2133 0.33602,-0.82195 0.3815,-1.82541 0.0454,-1.00359 0.0636,-3.08331 0.0547,-6.23919 l 0,-7.19277 4.14125,0 c 2.27952,0.0166 4.09578,-0.0725 5.44907,-0.27259 1.3531,-0.19973 2.95153,-0.6176 4.79518,-1.2533 5.27194,-1.78007 10.03986,-4.97686 14.3038,-9.59033 4.26381,-4.61361 7.77854,-10.42596 10.54395,-17.43702 0.67197,-1.58485 1.28955,-3.26495 1.8527,-5.04042 0.56297,-1.77553 0.96259,-3.29214 1.19881,-4.55001 0.31764,-1.43037 0.17256,-2.60196 -0.43592,-3.51462 -0.60858,-0.91271 -1.62576,-1.48486 -3.05145,-1.71645 -1.01273,-0.1 -1.92998,0.1 -2.75186,0.59941 -0.82195,0.49944 -1.3578,1.24419 -1.60744,2.23414 -0.92184,3.34205 -1.69384,5.92122 -2.31587,7.73766 -0.62217,1.81633 -1.44862,3.74164 -2.47931,5.77598 -2.2024,4.60443 -4.82708,8.41877 -7.87392,11.44309 -3.04701,3.02416 -6.38005,5.09484 -9.99905,6.2119 -1.6711,0.445 -3.45113,0.75376 -5.34011,0.92636 -1.88907,0.17257 -3.66906,0.15435 -5.34005,-0.0543 l -1.08978,0 0,-49.91348 0,-50.13149 1.08978,0 c 3.08317,-0.41773 6.12561,-0.23616 9.12714,0.54488 3.0015,0.78105 5.77142,2.05257 8.30984,3.81441 0.93083,0.69934 2.01156,1.64381 3.24223,2.83352 1.23051,1.18973 2.25673,2.35217 3.07871,3.48735 l 1.30782,1.52577 -1.30782,0.21793 c -2.96073,0.45417 -5.48544,1.61658 -7.57417,3.48741 -2.0889,1.87089 -3.63277,4.34114 -4.63173,7.41074 -0.20899,0.61756 -0.33609,1.23512 -0.38139,1.8527 -0.0457,0.61752 -0.0636,1.45306 -0.0546,2.50653 -0.0101,1.2488 0.0101,2.18423 0.0546,2.80628 0.0454,0.6221 0.17256,1.28513 0.38139,1.98891 1.48937,4.35929 4.61344,7.4107 9.37243,9.15444 2.42021,0.87189 4.77236,1.08984 7.05653,0.65393 2.28399,-0.43596 4.36371,-1.5258 6.23916,-3.26953 1.96619,-1.77085 3.31935,-3.89599 4.05958,-6.37533 0.74011,-2.47933 0.83998,-5.14935 0.29976,-8.01018 -1.37144,-6.95665 -3.9688,-13.09588 -7.79215,-18.41783 -3.82352,-5.32188 -8.49151,-9.28156 -14.00404,-11.87901 -2.20697,-1.07156 -4.33217,-1.81627 -6.37549,-2.2341 -2.04348,-0.41773 -4.49553,-0.61752 -7.35623,-0.59941 l -4.14126,-0.21794 0,-6.97483 c 0.0101,-2.96513 -0.0101,-4.99037 -0.0546,-6.07566 -0.0454,-1.08521 -0.17256,-1.74824 -0.38151,-1.98897 -0.29047,-0.95802 -0.79925,-1.60287 -1.52572,-1.93439 -0.72663,-0.33144 -1.88907,-0.48582 -3.48742,-0.46317 -0.95365,-0.0101 -1.66196,0.0101 -2.12511,0.0543 -0.4632,0.0454 -0.84466,0.17256 -1.14428,0.38143 l 0,0 z m -2.61559,121.40531 c -0.0232,-0.0101 -0.19542,-0.15435 -0.51763,-0.43592 -0.32261,-0.28153 -0.6585,-0.64484 -1.00811,-1.08987 -2.03891,-2.11602 -3.5737,-4.91326 -4.60446,-8.39152 -1.03078,-3.47836 -1.7483,-8.01925 -2.15242,-13.62267 -0.14541,-2.0303 -0.24212,-6.22814 -0.29047,-12.59342 -0.0483,-6.36533 -0.0483,-12.74271 0,-19.13227 0.0483,-6.3896 0.1454,-10.63579 0.29047,-12.73876 0.40412,-5.49902 1.12164,-9.9763 2.15242,-13.43193 1.03076,-3.4556 2.56555,-6.24369 4.60446,-8.36436 0.34961,-0.44492 0.68564,-0.80824 1.00811,-1.08977 0.32227,-0.28154 0.49487,-0.42681 0.51763,-0.43592 0.10433,0.1951 0.16792,4.38196 0.19077,12.5601 0.0232,8.17815 0.0331,19.17619 0.0265,32.99412 0.003,13.92237 -0.003,24.98393 -0.0265,33.18486 -0.0232,8.20078 -0.0864,12.39658 -0.19077,12.58733 l 0,0 z"
     id="text2383"
     style="font-size:40px;font-style:normal;font-variant:normal;font-weight:normal;font-stretch:normal;text-align:start;line-height:100%;writing-mode:lr-tb;text-anchor:start;fill:#000000;fill-opacity:1;stroke:none;font-family:Emmentaler;-inkscape-font-specification:Emmentaler" />
</svg>
