<?xml version="1.0" encoding="UTF-8" standalone="no"?>
<!-- Created with Inkscape (http://www.inkscape.org/) -->

<svg
   xmlns:dc="http://purl.org/dc/elements/1.1/"
   xmlns:cc="http://creativecommons.org/ns#"
   xmlns:rdf="http://www.w3.org/1999/02/22-rdf-syntax-ns#"
   xmlns:svg="http://www.w3.org/2000/svg"
   xmlns="http://www.w3.org/2000/svg"
   version="1.1"
   width="744.09448"
   height="1052.3622"
   id="svg2">
  <metadata
     id="metadata14">
    <rdf:RDF>
      <cc:Work
         rdf:about="">
        <dc:format>image/svg+xml</dc:format>
        <dc:type
           rdf:resource="http://purl.org/dc/dcmitype/StillImage" />
        <dc:title></dc:title>
      </cc:Work>
    </rdf:RDF>
  </metadata>
  <defs
     id="defs4" />
  <rect
     width="15.990796"
     height="43.444611"
     x="40.140129"
     y="21.677532"
     id="rect3705"
     style="fill:#ff0000;fill-opacity:0.19607843;stroke:none" />
  <path
     d="m 11.197029,27.606929 75.306872,0"
     id="path3709"
     style="fill:none;stroke:#0000ff;stroke-width:0.13715945;stroke-linecap:butt;stroke-linejoin:miter;stroke-miterlimit:4;stroke-opacity:0.5098038;stroke-dasharray:none" />
  <path
     d="m 7.4298854,38.131725 75.3068766,0"
     id="path3709-6"
     style="fill:none;stroke:#0000ff;stroke-width:0.12760623;stroke-linecap:butt;stroke-linejoin:miter;stroke-miterlimit:4;stroke-opacity:0.54901961;stroke-dasharray:none" />
  <rect
     width="43.015663"
     height="3.8271985"
     x="21.866131"
     y="-44.147587"
     transform="matrix(0,1,-1,0,0,0)"
     id="rect3637"
     style="fill:#000000;fill-opacity:1;stroke:none" />
  <rect
     width="43.015663"
     height="0.95679963"
     x="21.866131"
     y="-48.497906"
     transform="matrix(0,1,-1,0,0,0)"
     id="rect3639"
     style="fill:#000000;fill-opacity:1;stroke:none" />
  <path
     d="m 56.059378,39.165241 c 0,1.283645 -1.040599,2.324244 -2.324244,2.324244 -1.283644,0 -2.324244,-1.040599 -2.324244,-2.324244 0,-1.283644 1.0406,-2.324244 2.324244,-2.324244 1.283645,0 2.324244,1.0406 2.324244,2.324244 z"
     transform="matrix(0.90298507,0,0,0.90298507,5.0916942,2.6721812)"
     id="path3727"
     style="fill:#000000;fill-opacity:1;stroke:none" />
  <path
     d="m 56.059378,39.165241 c 0,1.283645 -1.040599,2.324244 -2.324244,2.324244 -1.283644,0 -2.324244,-1.040599 -2.324244,-2.324244 0,-1.283644 1.0406,-2.324244 2.324244,-2.324244 1.283645,0 2.324244,1.0406 2.324244,2.324244 z"
     transform="matrix(0.90298507,0,0,0.90298507,5.0916942,13.1475)"
     id="path3753"
     style="fill:#000000;fill-opacity:1;stroke:none" />
  <path
     d="m 42.233988,19.141605 0,53.512931"
     id="path3643-2-6"
     style="fill:none;stroke:#00ff00;stroke-width:1.00028813px;stroke-linecap:butt;stroke-linejoin:miter;stroke-opacity:0.19607843" />
  <path
     d="m 40.320144,19.141606 0,53.51293"
     id="path3643-2-6-9"
     style="fill:none;stroke:#00ff00;stroke-width:1.00028813px;stroke-linecap:butt;stroke-linejoin:miter;stroke-opacity:0.19607843" />
  <path
     d="m 44.147144,19.141605 0,53.512931"
     id="path3643-2-6-4"
     style="fill:none;stroke:#00ff00;stroke-width:1.00028813px;stroke-linecap:butt;stroke-linejoin:miter;stroke-opacity:0.19607843" />
</svg>
