<?xml version="1.0" encoding="UTF-8" standalone="no"?>
<!-- Created with Inkscape (http://www.inkscape.org/) -->

<svg
   xmlns:svg="http://www.w3.org/2000/svg"
   xmlns="http://www.w3.org/2000/svg"
   version="1.1"
   width="744.09448"
   height="1052.3622"
   id="svg2">
  <defs
     id="defs4" />
  <rect
     width="98.731262"
     height="123.03949"
     x="79.37648"
     y="217.24385"
     id="rect3705"
     style="fill:#ff0000;fill-opacity:0.19607843;stroke:none" />
  <path
     d="m 49.919592,221.17731 179.375918,0"
     id="path3709"
     style="fill:none;stroke:#00ffff;stroke-width:0.53261638;stroke-linecap:butt;stroke-linejoin:miter;stroke-miterlimit:4;stroke-opacity:0.5294117;stroke-dasharray:none" />
  <path
     d="m 61.873355,337.75361 179.375915,0"
     id="path3709-9"
     style="fill:none;stroke:#00ffff;stroke-width:0.53261638;stroke-linecap:butt;stroke-linejoin:miter;stroke-miterlimit:4;stroke-opacity:0.60784314;stroke-dasharray:none" />
  <path
     d="m 133.45729,226.1468 2.93566,0 c 5.47614,0.0487 10.55708,1.25148 15.24292,3.61316 4.6857,2.36177 8.63756,5.59848 11.85557,9.71029 -0.5552,-0.01 -1.08209,-0.0487 -1.58073,-0.113 -0.4988,-0.0658 -1.02569,-0.10326 -1.58074,-0.113 -5.12336,0.188 -9.10346,2.01363 -11.94026,5.47614 -2.83694,3.46261 -4.27657,7.43331 -4.3188,11.91206 0.3385,6.1395 2.42748,10.5148 6.26648,13.12585 3.83891,2.61104 7.39557,3.88128 10.67003,3.8107 l 0,0 c 4.187,-0.12712 7.72486,-1.736 10.61357,-4.82689 2.88852,-3.09094 4.394,-6.9017 4.51645,-11.43217 -0.002,-4.43559 -1.47909,-9.49004 -4.43282,-15.16343 -2.95388,-5.6734 -7.3755,-10.64422 -13.2649,-14.91261 -5.88945,-4.26819 -13.23841,-6.51244 -22.04677,-6.73273 l -2.93566,0 -8.35536,0.67744 c -16.20734,2.94512 -27.827705,9.81384 -34.861095,20.60616 -7.03334,10.79233 -10.4677,23.41948 -10.30303,37.88141 -0.1505,14.46188 3.31201,27.08899 10.38773,37.88136 7.07572,10.79232 18.667825,17.66104 34.776395,20.60616 l 8.35536,0.67744 c 0.55982,0.01 1.07731,0.0487 1.55253,0.113 0.47536,0.0658 0.93616,0.10325 1.38313,0.11299 10.03642,-0.40133 18.09068,-3.4626 24.16287,-9.18334 6.07195,-5.72083 10.46288,-11.69254 13.17285,-17.91514 2.70972,-6.22259 4.03957,-10.2874 3.9895,-12.19426 -0.039,-0.80456 -0.3575,-1.45376 -0.95974,-1.94773 -0.60234,-0.49401 -1.26098,-0.74806 -1.97593,-0.76214 -0.57881,-0.005 -1.1151,0.17388 -1.60898,0.53635 -0.49411,0.36236 -0.86106,0.93616 -1.10088,1.72188 -2.2348,9.42326 -6.4595,17.39282 -12.67421,23.90872 -6.21485,6.5158 -13.88331,9.91256 -23.00548,10.19013 -0.44711,-0.01 -0.90801,-0.0487 -1.38313,-0.113 -0.47537,-0.0657 -0.99276,-0.10374 -5.73018,-0.90324 -10.50073,-3.36383 -14.50903,-8.15312 -16.20267,-15.15822 -1.69367,-7.00514 -2.42758,-15.68984 -2.20173,-26.05405 l 0,-11.51686 0,-11.51687 c -0.22599,-10.3642 0.50806,-19.04885 2.20173,-26.05404 1.69364,-7.0051 5.70194,-11.79434 12.02496,-14.36784"
     id="text2383"
     style="font-size:57.24105072px;font-style:normal;font-variant:normal;font-weight:normal;font-stretch:normal;text-align:center;text-anchor:middle;fill:#000000;fill-opacity:1;stroke:none;font-family:feta20;-inkscape-font-specification:feta20" />
</svg>
