<?xml version="1.0" encoding="UTF-8" standalone="no"?>
<!-- Created with Inkscape (http://www.inkscape.org/) -->

<svg
   xmlns:svg="http://www.w3.org/2000/svg"
   xmlns="http://www.w3.org/2000/svg"
   version="1.1"
   width="744.09448"
   height="1052.3622"
   id="svg2"
   style="display:inline">
  <defs
     id="defs4" />
  <g
     id="layer2"
     style="display:inline">
    <rect
       width="48.509277"
       height="55.909309"
       x="-0.17963283"
       y="0.1444124"
       id="rect3705"
       style="fill:#ff0000;fill-opacity:0.19607843;stroke:none;display:inline" />
  </g>
  <g
     id="g2922"
     style="display:inline">
    <path
       d="m 41.910846,9.4739484 c -0.139684,0.0055 -0.278279,0.037487 -0.40625,0.09375 l -1.53125,0.6250006 c -0.404006,0.168802 -0.68707,0.593397 -0.6875,1.03125 l 0.0312,11.5625 -3.9375,1.84375 -0.0625,-10.90625 c -0.0057,-0.723673 -0.858523,-1.298032 -1.53125,-1.03125 l -1.5625,0.625 c -0.415498,0.159084 -0.713284,0.586371 -0.7187,1.03125 l 0.0625,12.09375 -4.53125,2.125 c -0.383036,0.173858 -0.649181,0.579413 -0.65625,1 l 0,2.46875 c -0.0015,0.761638 0.94576,1.344567 1.625,1 l 3.5625,-1.71875 0.0625,7.21875 -4.59375,2.4375 c -0.359985,0.191296 -0.598122,0.592368 -0.59375,1 l 0.0312,2.5 c 0.0086,0.768482 0.982209,1.337947 1.65625,0.96875 l 3.5,-1.9375 0.0625,10.90625 c -0.01764,0.804965 1.039243,1.400663 1.71875,0.96875 l 1.53125,-0.9375 c 0.327809,-0.202244 0.536948,-0.583615 0.53125,-0.96875 l -0.0625,-12.03125 3.9375,-2.15625 0,10.375 c -0.0037,0.786397 1.010251,1.368459 1.6875,0.96875 l 1.5625,-0.9375 c 0.339304,-0.194462 0.561813,-0.577672 0.5625,-0.96875 l -0.0312,-11.53125 4.5625,-2.5 c 0.350824,-0.186381 0.586895,-0.57155 0.59375,-0.96875 l 0,-2.25 c 0.01307,-0.778886 -0.973063,-1.374286 -1.65625,-1 l -3.5,1.90625 -0.0312,-6.625 4.5625,-2.21875 c 0.371506,-0.182738 0.623536,-0.585986 0.625,-1 l 0,-2.21875 c -0.0087,-0.744954 -0.919215,-1.316282 -1.59375,-1 l -3.59375,1.6875 -0.0312,-10.40625 c 0.0036,-0.6005541 -0.556021,-1.1450938 -1.15625,-1.1250006 l -1e-4,0 z m -2.59375,18.0937506 0,6.8125 -3.90625,2.125 -0.0312,-7.03125 3.9375,-1.90625 -5e-5,0 z"
       id="path2926"
       style="fill:#0000ff;display:inline" />
  </g>
  <g
     id="g2928"
     style="display:inline">
    <path
       d="m 12.535846,0.50519857 c -0.116909,0.002698 -0.233373,0.0238734 -0.34375,0.0625 l -1.96875,0.68750003 c -0.436748,0.1524961 -0.7525635,0.5999016 -0.7499998,1.0625 l 0.0625,14.2187504 0.0312,2.6875 0.0625,10.78125 0,2.6875 c 0.00866,0.744954 0.9192148,1.316282 1.5937498,1 l 1.96875,-0.9375 6.21875,-3 0.0312,11.875 c -0.01307,0.778886 0.973063,1.374286 1.65625,1 l 1.96875,-1.03125 c 0.359985,-0.191296 0.598122,-0.592368 0.59375,-1 l -0.0312,-13.5625 0,-2.53125 -0.0312,-10.25 0,-2.5625 c 0.0027,-0.739266 -0.883838,-1.324405 -1.5625,-1.03125 l -1.96875,0.8125 -6.3125,2.59375 -0.0625,-12.4375004 c 0.0036,-0.6005539 -0.556021,-1.14509321 -1.15625,-1.12500003 z m 6.84375,16.25000043 0.0312,7.96875 -5.59375,2.625 -0.0312,-8.1875 5.59375,-2.40625 z"
       id="path2930"
       style="fill:#00ff00;display:inline" />
  </g>
  <g
     id="layer1"
     style="display:inline">
    <path
       d="m 1.2233462,7.0364485 c -0.54721,0.058418 -1.00614056,0.5747149 -1.00000003,1.125 l 0,21.0312505 0,21.15625 0,3.46875 c -0.003258,0.589933 0.53506734,1.128258 1.12500003,1.125 l 1.75,0 c 0.2344164,-0.0017 0.4676669,-0.0795 0.65625,-0.21875 4.73461,-3.505347 8.7738488,-9.98972 9.7499988,-14.75 0.24404,-1.19007 0.31502,-2.311369 0.0312,-3.3125 -0.28377,-1.001131 -1.08721,-1.900741 -2.15625,-2.21875 -1.7784088,-0.529028 -4.1278888,0.399564 -7.1562488,2.1875 l 0,-27.2812505 c 0.00177,-0.3690354 -0.1925466,-0.7333856 -0.5,-0.9375 l -1.75,-1.1875 c -0.2174961,-0.1480746 -0.4884095,-0.215803 -0.75,-0.1875 l 5e-5,0 z m 6.25,32.3437505 c 0.71846,-0.02975 1.15899,0.136422 1.40625,0.40625 0.24726,0.269828 0.45956,0.745456 0.3125,1.6875 -0.23891,1.530408 -1.97736,4.336845 -4.96875,7.75 l 0,-8.53125 c 1.1732,-0.818402 2.36557,-1.275877 3.25,-1.3125 z"
       id="path2861"
       style="fill:#ff0000" />
  </g>
</svg>
