<?xml version="1.0" encoding="UTF-8" standalone="no"?>
<!-- Created with Inkscape (http://www.inkscape.org/) -->

<svg
   xmlns:svg="http://www.w3.org/2000/svg"
   xmlns="http://www.w3.org/2000/svg"
   version="1.1"
   width="48"
   height="48"
   id="svg2">
  <defs
     id="defs4">
    <clipPath
       id="clipPath2980">
      <path
         d="m 0,2221 1709,0 L 1709,0 0,0 0,2221 z"
         id="path2982" />
    </clipPath>
    <clipPath
       id="clipPath3128">
      <path
         d="m 0,2221 1709,0 L 1709,0 0,0 0,2221 z"
         id="path3130" />
    </clipPath>
    <clipPath
       id="clipPath3322">
      <path
         d="m 0,2221 1709,0 L 1709,0 0,0 0,2221 z"
         id="path3324" />
    </clipPath>
  </defs>
  <rect
     width="23.544605"
     height="33.520634"
     x="4.8614306"
     y="3.786216"
     id="rect3705"
     style="fill:#ff0000;fill-opacity:0.19607843;stroke:none" />
  <path
     d="m 12.59375,3.78125 c -0.698341,0 -1.28125,0.5809431 -1.28125,1.28125 l 0,3.9375 c -3.7870629,0.4290295 -6.375,1.274282 -6.375,2.28125 l 0,1.9375 c 0,0.392664 0.4119156,0.757111 1.125,1.09375 1.8679764,0.877226 5.883468,1.46875 10.5625,1.46875 4.682473,0 8.723317,-0.591524 10.59375,-1.46875 0.708662,-0.336639 1.125,-0.701086 1.125,-1.09375 l 0,-1.9375 c 0,-1.042843 -2.797408,-1.9338862 -6.8125,-2.34375 l 0,-3.875 c 0,-0.7003069 -0.577994,-1.28125 -1.28125,-1.28125 l -7.65625,0 z m 1.0625,2.15625 1.5,0 2.53125,0 1.5,0 c 0.117947,0 0.21875,0.5492017 0.21875,1.25 l 0,1.59375 C 18.518703,8.735546 17.580366,8.6875 16.625,8.6875 c -0.990258,0 -1.959441,0.042148 -2.875,0.09375 l -0.3125,0.03125 0,-1.625 c 0,-0.7007983 0.103264,-1.25 0.21875,-1.25 z M 6.59375,17.125 c -0.126301,0.12925 -0.2210048,0.267663 -0.25,0.40625 l 0,0.0625 c 0,0.0088 0,0.02289 0,0.03125 0,0.02015 -0.00294,0.04333 0,0.0625 l 0.8125,16.375 c 0.071259,1.285616 1.5304644,3.25 9.46875,3.25 7.939268,0 9.430706,-1.964384 9.5,-3.25 l 0.78125,-16.375 c 0.0015,-0.01917 0.03125,-0.04235 0.03125,-0.0625 0,-0.0084 -0.03125,-0.0224 -0.03125,-0.03125 l 0.03125,-0.0625 -0.03125,0 c -0.02261,-0.138587 -0.09196,-0.277 -0.21875,-0.40625 -1.021711,1.037928 -5.147575,1.1875 -10.0625,1.1875 -4.914926,0 -9.0051162,-0.149572 -10.03125,-1.1875 z"
     id="path3134"
     style="fill:#800000;fill-opacity:1;fill-rule:nonzero;stroke:none" />
</svg>
