<?xml version="1.0" encoding="UTF-8" standalone="no"?>
<!-- Created with Inkscape (http://www.inkscape.org/) -->

<svg
   xmlns:svg="http://www.w3.org/2000/svg"
   xmlns="http://www.w3.org/2000/svg"
   version="1.1"
   width="744.09448"
   height="1052.3622"
   id="svg2">
  <defs
     id="defs4" />
  <rect
     width="80.942917"
     height="109.53322"
     x="69.375488"
     y="15.63411"
     id="rect3705"
     style="fill:#ff0000;fill-opacity:0.19607843;stroke:none" />
  <path
     d="m 79.488112,123.24737 c -1.13954,-1.08079 -2.13813,-4.19861 -2.13813,-4.19861 l 0,-38.576936 0,-38.576923 33.499998,0 33.5,0 0,37.54966 c 0,39.987799 -0.21147,41.887609 -4.94461,44.420709 -1.18398,0.63364 -12.36283,1.02964 -29.06657,1.02964 l -27.142658,0 c 0,0 -2.72669,-0.71679 -3.70803,-1.64754 z m 14.36187,-39.838774 c 0,-29.031094 -0.11345,-31.008154 -1.79804,-31.332576 -4.51715,-0.869924 -4.70196,0.342993 -4.70196,30.859538 0,15.837673 0.28249,29.531922 0.62775,30.431662 0.40905,1.06596 1.54131,1.52994 3.25,1.33179 0.87408,-0.10136 2.62225,-0.3041 2.62225,-0.3041 l 0,-30.986314 z m 19.999998,0.595291 c 0,-26.881679 -0.18638,-30.50858 -1.61407,-31.409147 -0.88775,-0.559973 -2.35025,-0.73564 -3.25,-0.390371 -1.46487,0.562121 -1.63593,3.802825 -1.63593,30.992481 0,16.700595 0.32066,30.68539 0.71258,31.0773 0.39192,0.39192 1.993,2.01576 3.25,1.388 l 2.53742,-1.26724 0,-30.391023 z m 19.3,29.691023 c 0.87835,-0.87835 1.2,-9.00001 1.2,-30.300009 0,-30.162308 -0.17686,-31.5 -4.16481,-31.5 -3.44294,0 -3.83519,3.296792 -3.83519,32.234259 0,29.1723 0.20718,30.76575 4,30.76575 0.88,0 2.14,-0.54 2.8,-1.2 z M 71.349502,36.549193 c 0,-3.075816 3.22302,-7.53201 6.60767,-9.138134 2.63406,-1.249941 8.43614,-1.515502 33.043938,-1.51242 28.03219,0.0035 30.04746,0.12482 33.11179,1.993156 3.01012,1.835288 7.22402,8.349504 6.11712,9.456396 -0.26312,0.263123 -18.11898,0.606274 -39.6797,0.762558 -37.545058,0.272147 -39.201268,0.206172 -39.200818,-1.561556 z m 27.00048,-15.999304 c 0,-3.314621 3.485898,-4.654988 12.106238,-4.654988 8.72351,0 12.89376,1.473781 12.89376,4.556704 0,1.180752 -2.27382,1.443296 -12.5,1.443296 -9.80427,0 -12.499998,-0.290063 -12.499998,-1.345012 z"
     id="path135042"
     style="fill:#000000" />
</svg>
