<?xml version="1.0" encoding="UTF-8" standalone="no"?>
<!-- Created with Inkscape (http://www.inkscape.org/) -->

<svg
   xmlns:svg="http://www.w3.org/2000/svg"
   xmlns="http://www.w3.org/2000/svg"
   version="1.1"
   width="744.09448"
   height="1052.3622"
   id="svg2">
  <defs
     id="defs4" />
  <rect
     width="127.61079"
     height="147.10204"
     x="98.887444"
     y="14.404985"
     id="rect3705"
     style="fill:#ff0000;fill-opacity:0.19607843;stroke:none" />
  <path
     d="m 224.75,15.84375 0,7.84375 -25.28125,0 0,26.25 25.28125,0 0,7.875 -25.28125,0 0,26.25 25.28125,0 0,7.84375 -25.28125,0 0,26.28125 25.28125,0 0,7.84375 -25.28125,0 0,26.25 25.28125,0 0,7.875 -124.09375,0 0,-7.875 61.46875,0 0,-26.25 -61.46875,0 0,-7.84375 61.46875,0 0,-26.28125 -61.46875,0 0,-7.84375 61.46875,0 0,-26.25 -61.46875,0 0,-7.875 61.46875,0 0,-26.25 -61.46875,0 0,-7.84375 61.46875,0 7.96875,0 10.8125,0 18.5625,0 25.28125,0 z m -43.84375,7.84375 -10.8125,0 0,26.25 10.8125,0 0,-26.25 z m 0,34.125 -10.8125,0 0,26.25 10.8125,0 0,-26.25 z m 0,34.09375 -10.8125,0 0,26.28125 10.8125,0 0,-26.28125 z m 0,34.125 -10.8125,0 0,26.25 10.8125,0 0,-26.25 z"
     id="rect2816"
     style="fill:#000000;fill-opacity:1;stroke:none" />
  <path
     d="m 129.70553,71.07678 c 0,5.793822 4.6489,10.490642 10.3836,10.490642 5.7347,0 10.38359,-4.69682 10.38359,-10.490642 0,-5.793822 -4.64889,-10.490644 -10.38359,-10.490644 -5.7347,0 -10.3836,4.696822 -10.3836,10.490644 z"
     id="path2816"
     style="fill:#008000;fill-opacity:1;stroke:#00ffff;stroke-width:0.1932871;stroke-linecap:square;stroke-miterlimit:4;stroke-opacity:0.60784314;stroke-dashoffset:0" />
  <path
     d="m 129.70553,104.82962 c 0,5.79382 4.6489,10.49064 10.3836,10.49064 5.7347,0 10.38359,-4.69682 10.38359,-10.49064 0,-5.79382 -4.64889,-10.490641 -10.38359,-10.490641 -5.7347,0 -10.3836,4.696821 -10.3836,10.490641 z"
     id="path2818"
     style="fill:#008000;fill-opacity:1;stroke:#00ffff;stroke-width:0.1932871;stroke-linecap:square;stroke-miterlimit:4;stroke-opacity:0.60784314;stroke-dashoffset:0" />
</svg>
