<?xml version="1.0" encoding="UTF-8" standalone="no"?>
<!-- Created with Inkscape (http://www.inkscape.org/) -->

<svg
   xmlns:svg="http://www.w3.org/2000/svg"
   xmlns="http://www.w3.org/2000/svg"
   version="1.1"
   width="48"
   height="48"
   id="svg2">
  <defs
     id="defs4">
  </defs>
  <rect
     width="30"
     height="36"
     x="6.0711021"
     y="3.6659887"
     id="rect3638"
     style="fill:#ff0000;fill-opacity:0.19607843;stroke:none" />
  <path
     d="m 6.3125,3.96875 0,29.5 2.96875,0 1.46875,0 0,-2.9375 -1.46875,0 0,-23.625 17.6875,0 0,1.5 2.9375,0 0,-1.5 0,-2.9375 -23.59375,0 z m 5.90625,5.90625 0,29.5 23.59375,0 0,-29.5 -23.59375,0 z m 2.9375,2.9375 17.71875,0 0,23.59375 -17.71875,0 0,-23.59375 z m 2.96875,5.40625 0,1 6.5625,0 0,-1 -6.5625,0 z m 0,2.96875 0,0.96875 11.78125,0 0,-0.96875 -11.78125,0 z m 0,2.9375 0,0.96875 8.53125,0 0,-0.96875 -8.53125,0 z m 0,2.9375 0,1 6.5625,0 0,-1 -6.5625,0 z m 0,2.96875 0,0.96875 11.15625,0 0,-0.96875 -11.15625,0 z"
     id="rect3705"
     style="fill:#000000;fill-opacity:1;stroke:none" />
</svg>
