<?xml version="1.0" encoding="UTF-8" standalone="no"?>
<!-- Created with Inkscape (http://www.inkscape.org/) -->

<svg
   xmlns:svg="http://www.w3.org/2000/svg"
   xmlns="http://www.w3.org/2000/svg"
   version="1.1"
   width="48"
   height="48"
   id="svg2">
  <defs
     id="defs4">
    <clipPath
       id="clipPath2980">
      <path
         d="m 0,2221 1709,0 L 1709,0 0,0 0,2221 z"
         id="path2982" />
    </clipPath>
    <clipPath
       id="clipPath3128">
      <path
         d="m 0,2221 1709,0 L 1709,0 0,0 0,2221 z"
         id="path3130" />
    </clipPath>
    <clipPath
       id="clipPath3322">
      <path
         d="m 0,2221 1709,0 L 1709,0 0,0 0,2221 z"
         id="path3324" />
    </clipPath>
  </defs>
  <rect
     width="37"
     height="37"
     x="5.0793848"
     y="4.352231"
     id="rect3705"
     style="fill:#ff0000;fill-opacity:0.19607843;stroke:none" />
  <path
     d="m 35.40625,4.375 c -1.159745,1.843e-4 -2.058409,0.4870198 -2.65625,1.0625 -0.414779,0.4010178 -1.72722,1.4813825 -2.6875,2.25 1.081175,0.069293 3.270784,0.5160722 5.65625,2.875 2.371214,2.347134 2.818195,4.380001 2.84375,5.5 0.807441,-1.042351 2.053915,-2.676949 2.25,-2.875 1.305766,-1.329846 2.268417,-4.1246804 -1.125,-6.90625 C 37.991038,4.8912023 36.565995,4.3748157 35.40625,4.375 z M 28.5625,8.96875 27.25,10.25 c 0,0 2.518413,0.419951 5.5,3.375 1.871417,1.858147 2.882141,3.814407 3.0625,5.1875 l 1.25,-1.25 c 0,0 0.452939,-2.268268 -2.78125,-5.5 C 31.105052,8.8853185 28.5625,8.96875 28.5625,8.96875 z m -2.46875,2.90625 -1.25,1.25 c 0,0 2.398154,0.387544 5.25,3.21875 1.791312,1.776568 2.76402,3.653156 2.9375,4.96875 l 1.1875,-1.21875 c 0,0 0.43886,-2.155872 -2.65625,-5.25 C 28.522431,11.80319 26.09375,11.875 26.09375,11.875 z m -3.125,2.75 -11.5625,11.65625 c 0,0 1.000605,0.956782 3.5625,0.84375 0.547959,1.166195 1.071084,2.531971 4.0625,3.9375 -0.120895,2.440999 1.0625,3.8125 1.0625,3.8125 L 31.65625,23.21875 C 31.515697,21.628439 30.325134,19.647752 28.4375,17.78125 25.855948,15.223779 23.686749,14.725746 22.96875,14.625 z m -12.5,13.375 -5.3125,13.3125 13.25,-5.5 c 0,0 -1.058279,-2.102191 -1.03125,-3.21875 C 16.447155,32.298884 14.026278,30.829442 13.28125,28.5 10.991124,28.5059 10.46875,28 10.46875,28 z"
     id="path2986"
     style="fill:#800000;fill-opacity:1;fill-rule:nonzero;stroke:none" />
</svg>
