<?xml version="1.0" encoding="UTF-8" standalone="no"?>
<!-- Created with Inkscape (http://www.inkscape.org/) -->

<svg
   xmlns:svg="http://www.w3.org/2000/svg"
   xmlns="http://www.w3.org/2000/svg"
   version="1.1"
   width="744.09448"
   height="1052.3622"
   id="svg2">
  <defs
     id="defs4" />
  <rect
     width="65.19146"
     height="100"
     x="65"
     y="70"
     id="rect3705"
     style="fill:#ff0000;fill-opacity:0.19607843;stroke:none" />
  <path
     d="m 65.063534,169.93647 0,-97.505068 0,-2.156441 11.286117,0 0,97.505069 0,2.15644 -11.286117,0 z m 16.971602,0 0,-97.505068 0,-2.156441 3.60646,0 0,48.837099 c 1.78202,-0.93023 3.606465,-2.83297 5.38849,-5.83508 1.824448,-2.95982 3.351887,-6.08877 4.539903,-9.42915 1.188012,-3.34037 1.824445,-5.792802 1.909307,-7.399562 0.55157,3.551792 1.442579,6.384762 2.630604,8.541212 1.23044,2.11415 2.54574,3.63634 4.07318,4.56658 1.52745,0.88794 3.01246,1.35306 4.53991,1.35306 3.77617,0 6.1522,-1.69133 7.17049,-5.11627 1.0183,-3.42494 1.52745,-7.610975 1.52745,-12.558113 0,-2.241006 -0.0424,-4.2706 -0.16972,-6.046493 -0.12728,-1.775897 -0.38186,-3.594076 -0.84857,-5.412253 -0.4243,-1.818178 -1.1456,-3.467223 -2.1639,-4.904856 -1.06071,-1.437625 -2.41844,-2.452424 -4.1156,-2.959819 -1.52744,-0.422834 -3.05488,-0.634251 -4.5399,-0.634251 -1.35773,0 -2.50332,0.253702 -3.39432,0.718817 -0.93344,0.465114 -1.4426,1.183931 -1.52745,2.029594 0.21215,0.761097 0.72129,1.649041 1.61231,2.706126 0.89101,1.01479 1.485,1.818172 1.82444,2.325573 0.33943,0.507399 0.50914,1.226211 0.50914,2.198725 0,1.733614 -0.594,3.171242 -1.78201,4.355174 -1.18801,1.183931 -2.75789,1.818172 -4.75205,1.818172 -1.95174,0 -3.564041,-0.718807 -4.752044,-2.114155 -1.188021,-1.437633 -1.824449,-3.128957 -1.909311,-5.031705 0.169715,-2.579274 1.10315,-4.820281 2.757884,-6.680743 1.697167,-1.818178 3.776184,-3.213527 6.279511,-4.143751 2.5033,-0.930233 5.00661,-1.395352 7.55235,-1.395352 2.88517,0 5.64307,0.507399 8.27365,1.522199 2.67303,1.014795 5.04905,2.536989 7.08565,4.482018 2.07902,1.987309 3.73374,4.397457 4.92176,7.272709 1.18801,2.832979 1.78202,6.08878 1.78202,9.68286 0,4.989417 -0.93344,9.133174 -2.75789,12.388984 -1.86687,3.29809 -4.2429,5.75051 -7.12806,7.2727 -2.92761,1.5222 -6.02492,2.36786 -9.29196,2.45243 -3.39432,-0.21141 -6.23706,-0.97251 -8.4858,-2.28329 l -4.497476,7.2727 4.497476,7.23043 c 3.09732,-1.26849 6.15221,-1.90273 9.12223,-1.90273 3.77619,0 7.04323,1.09936 9.88596,3.21352 2.80032,2.15644 4.9642,4.90485 6.44922,8.32979 1.44258,3.42493 2.2063,6.93445 2.2063,10.5708 0,3.97462 -0.89101,7.69554 -2.67303,11.12047 -1.78201,3.42495 -4.28532,6.13107 -7.50993,8.20295 -3.26704,2.02959 -6.95836,3.04439 -11.15882,3.04439 -4.87934,-0.21142 -8.952525,-1.35306 -12.219566,-3.46722 -3.26703,-2.07188 -4.87934,-5.20083 -4.87934,-9.30231 0.169716,-1.98731 0.891011,-3.5095 2.16389,-4.65115 1.272865,-1.18393 2.630592,-1.77589 4.11561,-1.90274 1.782011,0 3.394326,0.63424 4.794476,1.90274 1.40016,1.22621 2.12146,2.79069 2.12146,4.65115 0,0.71882 -0.16972,1.39535 -0.50915,2.02959 -0.33943,0.59197 -0.80615,1.31078 -1.48502,2.15646 -0.67886,0.80337 -1.14558,1.39534 -1.40017,1.77589 -0.25456,0.42283 -0.46671,0.88794 -0.55156,1.47991 0,0.7611 0.46672,1.39534 1.44258,1.90274 0.93344,0.50739 2.16388,0.80338 3.6489,0.93023 4.66719,-0.21142 7.76452,-2.19873 9.33438,-5.87736 1.52744,-3.76321 2.29116,-8.37207 2.29116,-13.99574 0,-4.86257 -0.55157,-9.13318 -1.65473,-12.76953 -1.10315,-3.67863 -3.47918,-5.49681 -7.21292,-5.49681 -3.30947,0 -5.85521,1.39534 -7.63723,4.2706 -1.782015,2.83297 -2.927598,6.17334 -3.436749,10.02111 -0.551584,-3.2558 -1.400161,-6.38475 -2.630601,-9.38686 -1.230436,-3.0444 -2.630597,-5.70824 -4.285331,-7.99153 -1.569872,-2.24101 -3.309463,-4.05919 -5.091483,-5.32768 l 0,49.04851 -3.60646,0 z"
     id="path19"
     style="fill:#131516;fill-rule:evenodd;stroke:#131516;stroke-width:0.12706812" />
  <path
     d="m 58.265904,70 75.306866,0"
     id="path3709"
     style="fill:none;stroke:#ff00ff;stroke-width:0.2;stroke-linecap:butt;stroke-linejoin:miter;stroke-miterlimit:4;stroke-opacity:0.47058824;stroke-dasharray:none" />
  <path
     d="m 61.681659,170 75.247791,0"
     id="path3709-6"
     style="fill:none;stroke:#ff00ff;stroke-width:0.2;stroke-linecap:butt;stroke-linejoin:miter;stroke-miterlimit:4;stroke-opacity:0.64705882;stroke-dasharray:none" />
</svg>
