<?xml version="1.0" encoding="UTF-8" standalone="no"?>
<!-- Created with Inkscape (http://www.inkscape.org/) -->

<svg
   xmlns:dc="http://purl.org/dc/elements/1.1/"
   xmlns:cc="http://creativecommons.org/ns#"
   xmlns:rdf="http://www.w3.org/1999/02/22-rdf-syntax-ns#"
   xmlns:svg="http://www.w3.org/2000/svg"
   xmlns="http://www.w3.org/2000/svg"
   xmlns:sodipodi="http://sodipodi.sourceforge.net/DTD/sodipodi-0.dtd"
   xmlns:inkscape="http://www.inkscape.org/namespaces/inkscape"
   version="1.1"
   width="100"
   height="100"
   id="svg2"
   inkscape:version="0.47 r22583"
   sodipodi:docname="clef_bass.svg">
  <metadata
     id="metadata10">
    <rdf:RDF>
      <cc:Work
         rdf:about="">
        <dc:format>image/svg+xml</dc:format>
        <dc:type
           rdf:resource="http://purl.org/dc/dcmitype/StillImage" />
        <dc:title></dc:title>
      </cc:Work>
    </rdf:RDF>
  </metadata>
  <sodipodi:namedview
     pagecolor="#ffffff"
     bordercolor="#666666"
     borderopacity="1"
     objecttolerance="10"
     gridtolerance="10"
     guidetolerance="10"
     inkscape:pageopacity="0"
     inkscape:pageshadow="2"
     inkscape:window-width="1280"
     inkscape:window-height="751"
     id="namedview8"
     showgrid="false"
     inkscape:zoom="7.2066444"
     inkscape:cx="66.038922"
     inkscape:cy="67.840473"
     inkscape:window-x="0"
     inkscape:window-y="25"
     inkscape:window-maximized="1"
     inkscape:current-layer="svg2" />
  <defs
     id="defs4">
    <inkscape:perspective
       sodipodi:type="inkscape:persp3d"
       inkscape:vp_x="0 : 526.18109 : 1"
       inkscape:vp_y="0 : 1000 : 0"
       inkscape:vp_z="744.09448 : 526.18109 : 1"
       inkscape:persp3d-origin="372.04724 : 350.78739 : 1"
       id="perspective12" />
  </defs>
  <rect
     width="67.742462"
     height="95.509964"
     x="20.374481"
     y="4.4900374"
     id="rect3705"
     style="fill:#ff0000;fill-opacity:0.19607843;stroke:none" />
  <path
     d="m 0.1,4.49004 75.306866,0"
     id="path3709"
     style="fill:none;stroke:#0000ff;stroke-width:0.2;stroke-linecap:butt;stroke-linejoin:miter;stroke-miterlimit:4;stroke-opacity:0.49019608;stroke-dasharray:none" />
  <path
     d="m 10.056493,93.36634 75.247793,0"
     id="path3709-6"
     style="fill:none;stroke:#ff00ff;stroke-width:0.2;stroke-linecap:butt;stroke-linejoin:miter;stroke-miterlimit:4;stroke-opacity:0.60784314;stroke-dasharray:none" />
  <path
     sodipodi:nodetypes="ccscscscccsscscscc"
     style="fill:#ff0000;fill-rule:evenodd;stroke:#131516;stroke-width:0.1498816"
     id="path2830"
     d="m 74.084112,19.93026 c 0,-1.79594 0.65044,-3.29256 1.95132,-4.48986 1.25085,-1.24718 2.8019,-1.84582 4.65315,-1.84582 1.60109,0 3.10211,0.69841 4.45303,2.04538 1.35091,1.29707 2.00135,2.84356 2.00135,4.53974 0,1.79594 -0.70048,3.34245 -2.00135,4.58963 -1.40095,1.1973 -2.952,1.79594 -4.70319,1.79594 -1.85126,0 -3.35227,-0.59864 -4.55308,-1.94561 -1.20081,-1.29706 -1.80123,-2.84357 -1.80123,-4.6894 z m 0,26.14095 c 0,-1.79595 0.65044,-3.34245 1.85127,-4.53975 1.25084,-1.24718 2.80189,-1.84583 4.7532,-1.84583 1.60109,0 3.05208,0.64855 4.45303,1.99549 1.30087,1.34697 2.00135,2.79369 2.00135,4.39009 0,1.94561 -0.65044,3.49211 -1.90128,4.73929 -1.30089,1.24719 -2.80191,1.89571 -4.5531,1.89571 -1.95131,0 -3.50236,-0.64852 -4.7532,-1.84583 -1.20083,-1.19728 -1.85127,-2.79368 -1.85127,-4.78917 z" />
  <path
     d="m 26.424179,90.342298 6.896343,-6.28637 c 3.126079,-2.74423 6.416684,-6.186989 9.789556,-10.278389 3.372872,-4.091401 6.21102,-7.848568 8.514446,-12.987763 1.809833,-3.792034 3.372864,-8.182791 4.647973,-13.172302 1.275109,-4.939623 1.933237,-9.729543 2.056633,-14.270004 0,-4.241094 -0.452456,-8.282597 -1.398505,-12.07462 -0.904921,-3.841922 -2.46796,-6.985324 -4.689111,-9.529972 -2.221167,-2.4947508 -5.100437,-3.7421261 -8.678972,-3.7421261 -3.455139,0 -6.704606,0.8482128 -9.748426,2.4947501 -3.002675,1.696436 -5.141567,4.390778 -6.334409,8.182801 0,0.349265 -0.164534,0.798325 -0.411318,1.446947 0.08227,0.798325 0.411318,1.397079 1.028308,1.846129 0.616982,0.44905 1.151705,0.648632 1.645298,0.648632 0.246793,0 0.94605,-0.149684 2.015496,-0.449061 1.110583,-0.299357 2.015495,-0.498948 2.755882,-0.498948 2.180029,0 4.113258,0.948009 5.881961,2.794128 1.727557,1.846119 2.591348,4.0914 2.591348,6.735844 0,1.896007 -0.452448,3.692248 -1.316239,5.338786 -0.863791,1.646538 -2.056633,2.993699 -3.578527,3.941717 -1.52191,0.997896 -3.208346,1.446947 -5.018186,1.446947 -3.290597,0 -6.087617,-1.197478 -8.391034,-3.642331 -2.262297,-2.49475 -3.41401,-5.638162 -3.41401,-9.579879 0,-5.039399 1.27511,-9.380279 3.784199,-13.072507 2.550227,-3.692238 5.758556,-6.4364777 9.707289,-8.2825867 3.907594,-1.8960168 7.856318,-2.7941274 11.88731,-2.7941274 4.40118,0 8.596705,1.3471609 12.5043,4.0914005 3.948724,2.6943216 7.033673,6.4364576 9.337099,11.0767046 2.303418,4.690144 3.650034,9.914413 3.49626,15.068328 -0.276734,9.275079 -3.257539,18.658032 -7.897456,26.693879 -4.728875,8.189913 -12.202233,14.60325 -19.537966,20.57183 -5.338491,4.343562 -17.549689,10.876699 -17.549689,10.876699 l -0.575853,-2.594536 z"
     id="path19-7"
     style="fill:#131516;fill-rule:evenodd;stroke:#131516;stroke-width:0.13590741"
     sodipodi:nodetypes="ccscccccscccsscscsscscsccsccaaacc" />
</svg>
