<?xml version="1.0" encoding="UTF-8" standalone="no"?>
<!-- Created with Inkscape (http://www.inkscape.org/) -->

<svg
   xmlns:svg="http://www.w3.org/2000/svg"
   xmlns="http://www.w3.org/2000/svg"
   version="1.1"
   width="100"
   height="200"
   id="svg2">
  <defs
     id="defs4" />
  <rect
     width="54.550533"
     height="105.70046"
     x="15.286142"
     y="41.086559"
     id="rect3705"
     style="fill:#ff0000;fill-opacity:0.19607843;stroke:none" />
  <path
     d="m -31.911428,68.597844 179.375928,0"
     id="path3709"
     style="fill:none;stroke:#0ff0ff;stroke-width:0.53261638;stroke-linecap:butt;stroke-linejoin:miter;stroke-miterlimit:4;stroke-opacity:0.52941165;stroke-dasharray:none" />
  <path
     d="m -37.308546,95.044964 179.375916,0"
     id="path3709-9"
     style="fill:none;stroke:#00ffff;stroke-width:0.53261638;stroke-linecap:butt;stroke-linejoin:miter;stroke-miterlimit:4;stroke-opacity:0.56862745;stroke-dasharray:none" />
  <path
     d="m 43.019099,45.092924 c -0.39121,-0.0137 -0.76976,-2e-4 -1.125,0.0312 -4.31705,0.38164 -7.95435,2.53952 -9.74424,5.61661 -1.78988,3.07709 -1.7324,7.07364 1.34035,11.13308 8.64599,11.4223 17.9574,-1.57465 29.37666,-6.99229 -1.08161,3.94338 -3.94753,20.09541 -4.75,22.83604 l -0.0937,0 c -3.16553,1.60223 -5.90111,3.64138 -11.75,6.03125 1.1764,-8.88339 -4.13591,-11.04487 -10.00402,-11.24969 -0.19561,-0.007 -0.38804,-0.007 -0.57599,-10e-4 -0.18794,0.006 -0.37139,0.0168 -0.54901,0.0325 -4.31705,0.38164 -7.95435,2.53952 -9.74424,5.61661 -1.78989,3.07709 -1.7324,7.07364 1.34035,11.13308 8.64599,11.422296 17.9574,-1.57465 29.37666,-6.99229 l -5.86612,24.109826 c -3.93916,1.93974 -7.93579,4.20121 -12.03125,6 1.25483,-9.47562 -5.44483,-11.69016 -11.12902,-11.18719 -4.31702,0.382 -7.95435,2.53952 -9.74424,5.61661 -1.78988,3.07709 -1.7324,7.07364 1.34035,11.13308 8.64599,11.4223 17.98865,-1.6059 29.40791,-7.02354 l -7.50888,34.7185 5.19285,0.21875 8.84492,-36.66371 7.49112,-31.055036 6.75,-27.40625 -4.09139,-0.4375 c -3.16553,1.60223 -5.90111,3.64138 -11.75,6.03125 1.1764,-8.88339 -4.13591,-11.04489 -10.00402,-11.24969 l -5e-5,10e-5 0,-3e-4 z"
     id="path410" />
</svg>
