<?xml version="1.0" encoding="UTF-8" standalone="no"?>
<!-- Created with Inkscape (http://www.inkscape.org/) -->

<svg
   xmlns:svg="http://www.w3.org/2000/svg"
   xmlns="http://www.w3.org/2000/svg"
   version="1.1"
   width="744.09448"
   height="1052.3622"
   id="svg2">
  <defs
     id="defs4" />
  <rect
     width="48.149269"
     height="198.13509"
     x="35.207706"
     y="-1.4432364"
     id="rect3705"
     style="fill:#ff0000;fill-opacity:0.19607843;stroke:none" />
  <path
     d="m 19.066217,195.49695 75.306872,0"
     id="path3709"
     style="fill:none;stroke:#0000ff;stroke-width:0.2236068;stroke-linecap:butt;stroke-linejoin:miter;stroke-miterlimit:4;stroke-opacity:0.49019608;stroke-dasharray:none" />
  <path
     d="m 36.031471,70.488046 6.10421,0"
     id="path3699"
     style="fill:none;stroke:#00ff00;stroke-width:0.86401951;stroke-linecap:butt;stroke-linejoin:miter;stroke-miterlimit:4;stroke-opacity:0.19607843;stroke-dasharray:none" />
  <path
     d="m 36.01299,196.49773 2e-6,-32.1875 0,-61.65625 0,-32.187498 6.125,0 0,32.187498 0,2.88333 18.954655,-25.165488 c 5.29874,-7.034968 10.142283,-12.22667 11.849767,-17.585165 3.414971,-10.717 -1.054085,-31.37306 -1.054085,-31.37306 0,0 5.677913,8.253434 8.225696,18.597283 0.820702,4.328477 0.736766,11.264923 -0.01569,16.821312 -0.667342,4.927891 -2.19617,8.00437 -3.95442,14.38498 3.13758,8.543025 4.640174,19.641078 2.206366,30.432408 -2.433809,10.79133 -8.804021,21.27593 -13.562556,28.59206 l -11.472604,15.44731 c -3.38304,4.5551 -6.737362,8.04897 -7.82299,11.8429 -2.171256,7.58787 -3.087356,15.45502 -5.104141,28.96588 l -4.375,0 z m 6.226202,-51.65483 23.614875,-29.92416 c 5.46093,-9.63847 10.12717,-19.186298 9.0711,-31.201568 l -32.493395,47.686808 -0.19258,13.43892 z"
     id="path2820-0-0"
     style="fill:#000000;stroke:none" />
</svg>
