<?xml version="1.0" encoding="UTF-8" standalone="no"?>
<!-- Created with Inkscape (http://www.inkscape.org/) -->

<svg
   xmlns:svg="http://www.w3.org/2000/svg"
   xmlns="http://www.w3.org/2000/svg"
   version="1.1"
   width="744.09448"
   height="1052.3622"
   id="svg2">
  <defs
     id="defs4" />
  <rect
     width="32.578636"
     height="24.374214"
     x="25.6206"
     y="21.26125"
     id="rect3705"
     style="fill:#ff0000;fill-opacity:0.19607843;stroke:none" />
  <path
     d="m 42.271663,21.701338 c -6.929371,-0.0098 -16.214814,5.23013 -16.094354,12.075038 0.120454,6.84491 9.356165,11.406641 16.094354,11.397179 6.738188,-0.0094 15.229798,-4.576635 15.349986,-11.397179 0.120194,-6.820545 -8.420617,-12.065147 -15.349986,-12.075038 z m 13.3711,12.075038 c -0.17027,4.996979 -8.371373,6.758553 -13.3711,6.797263 -5.157441,0.03993 -13.727835,-1.642534 -13.899796,-6.797263 -0.178165,-5.340659 8.556358,-8.031743 13.899796,-7.986557 5.191383,0.0439 13.547897,2.798 13.3711,7.986557 z"
     id="rect2820-4"
     style="fill:#000000;fill-opacity:1;stroke:none" />
  <path
     d="m 11.197029,21.943877 75.306872,0"
     id="path3709"
     style="fill:none;stroke:#0000ff;stroke-width:0.13715945;stroke-linecap:butt;stroke-linejoin:miter;stroke-miterlimit:4;stroke-opacity:0.47058824;stroke-dasharray:none" />
  <path
     d="m 7.4298854,33.442083 75.3068766,0"
     id="path3709-6"
     style="fill:none;stroke:#0000ff;stroke-width:0.12760623;stroke-linecap:butt;stroke-linejoin:miter;stroke-miterlimit:4;stroke-opacity:0.49019608;stroke-dasharray:none" />
  <path
     d="m 42.424315,14.31016 0,39.205528"
     id="path3643"
     style="fill:none;stroke:#00ff00;stroke-width:1.66234326px;stroke-linecap:butt;stroke-linejoin:miter;stroke-opacity:0.19607843" />
</svg>
