<?xml version="1.0" encoding="UTF-8" standalone="no"?>
<!-- Created with Inkscape (http://www.inkscape.org/) -->

<svg
   xmlns:dc="http://purl.org/dc/elements/1.1/"
   xmlns:cc="http://creativecommons.org/ns#"
   xmlns:rdf="http://www.w3.org/1999/02/22-rdf-syntax-ns#"
   xmlns:svg="http://www.w3.org/2000/svg"
   xmlns="http://www.w3.org/2000/svg"
   xmlns:sodipodi="http://sodipodi.sourceforge.net/DTD/sodipodi-0.dtd"
   xmlns:inkscape="http://www.inkscape.org/namespaces/inkscape"
   version="1.1"
   width="744.09448"
   height="1052.3622"
   id="svg2"
   inkscape:version="0.47 r22583"
   sodipodi:docname="button_tonemodifiers.svg">
  <metadata
     id="metadata8">
    <rdf:RDF>
      <cc:Work
         rdf:about="">
        <dc:format>image/svg+xml</dc:format>
        <dc:type
           rdf:resource="http://purl.org/dc/dcmitype/StillImage" />
      </cc:Work>
    </rdf:RDF>
  </metadata>
  <sodipodi:namedview
     pagecolor="#ffffff"
     bordercolor="#666666"
     borderopacity="1"
     objecttolerance="10"
     gridtolerance="10"
     guidetolerance="10"
     inkscape:pageopacity="0"
     inkscape:pageshadow="2"
     inkscape:window-width="1280"
     inkscape:window-height="751"
     id="namedview6"
     showgrid="false"
     inkscape:zoom="7.2066444"
     inkscape:cx="412.29272"
     inkscape:cy="979.64725"
     inkscape:window-x="0"
     inkscape:window-y="25"
     inkscape:window-maximized="1"
     inkscape:current-layer="svg2" />
  <defs
     id="defs4">
    <inkscape:perspective
       sodipodi:type="inkscape:persp3d"
       inkscape:vp_x="0 : 526.18109 : 1"
       inkscape:vp_y="0 : 1000 : 0"
       inkscape:vp_z="744.09448 : 526.18109 : 1"
       inkscape:persp3d-origin="372.04724 : 350.78739 : 1"
       id="perspective10" />
    <inkscape:perspective
       id="perspective2824"
       inkscape:persp3d-origin="0.5 : 0.33333333 : 1"
       inkscape:vp_z="1 : 0.5 : 1"
       inkscape:vp_y="0 : 1000 : 0"
       inkscape:vp_x="0 : 0.5 : 1"
       sodipodi:type="inkscape:persp3d" />
  </defs>
  <rect
     width="47.251053"
     height="54.308628"
     x="379.82315"
     y="41.088203"
     id="rect3705"
     style="fill:#ff0000;fill-opacity:0.19607843;stroke:none" />
  <path
     d="m 401.96559,52.026328 -1.966,0.809 -7.863,3.239 -0.069,-14.111 -1.974,0.695 0.077,14.226 0.014,2.691 0.058,10.766 0.014,2.691 1.956,-0.94 7.827,-3.761 0.036,13.651 1.948,-1.056 -0.027,-13.536 -0.006,-2.561 -0.021,-10.244 -0.004,-2.559 z m -1.931,13.722 -7.833,3.674 -0.052,-10.678 7.857,-3.326 0.028,10.33 z M 382.60474,94.15019 c 8.85432,-6.555437 15.95611,-25.878573 0,-15.315647 0,0.751181 0,0.883217 0,1.584438 5.87371,-4.683135 13.1505,-0.432984 -0.52706,12.783757 0.52706,0 0.52706,0.947452 0.52706,0.947452 z m 0,0 c 0,-13.354726 0,-44.453502 0,-44.453502 l -1.77233,-1.199035 c 0,0 0,10.427321 0,21.022364 0,9.103386 0,18.329887 0,21.175811 l 0,3.454362 1.77233,0 z m 44.05879,-31.265518 0,-2.235538 -5.19296,2.443098 -0.022,-12.163375 -1.55317,0.624477 0.0283,12.265807 -6.18671,2.910333 -0.0543,-12.67913 -1.55317,0.624477 0.0606,12.78246 -5.19296,2.4422 0.0157,2.48443 5.18824,-2.508691 0.0456,9.673554 -5.1725,2.770162 0.0157,2.483532 5.16779,-2.835755 0.0606,12.782461 1.53272,-0.947948 -0.0543,-12.67913 6.15838,-3.379364 0.0283,12.265807 1.53271,-0.948845 -0.0212,-12.162477 5.16779,-2.835754 0,-2.235538 -5.17251,2.770162 -0.0165,-9.204522 5.18981,-2.506893 0,0 z m -6.7123,12.537162 -6.1631,3.301192 -0.0409,-9.594482 6.18198,-2.988505 0.022,9.281795 0,0 z"
     id="path348-7" />
</svg>
