<?xml version="1.0" encoding="UTF-8" standalone="no"?>
<!-- Created with Inkscape (http://www.inkscape.org/) -->

<svg
   xmlns:svg="http://www.w3.org/2000/svg"
   xmlns="http://www.w3.org/2000/svg"
   version="1.1"
   width="744.09448"
   height="1052.3622"
   id="svg2">
  <defs
     id="defs4" />
  <rect
     width="46.593483"
     height="38.250298"
     x="20.486448"
     y="16.127098"
     id="rect3705"
     style="fill:#ff0000;fill-opacity:0.19607843;stroke:none" />
  <path
     d="m 34.040963,22.911643 c -6.944198,2.990898 -14.675297,13.790521 -10.975432,20.65255 3.864737,7.167812 17.096698,5.406799 24.323663,2.276612 6.694168,-2.899418 11.921561,-9.473137 11.693673,-16.664475 l 0,-6.238834 -4.114114,0 0,1.0625 C 50.401838,20.228061 41.798855,19.570283 34.040963,22.911643 z m 10.133179,18.42806 C 38.541771,44.275904 28.157374,47.95145 25.14613,42.35884 22.107533,36.71543 30.785606,29.646361 36.574663,26.895369 42.064281,24.286673 52.253161,22.229812 54.788227,27.753818 57.185196,32.976907 49.2701,38.683139 44.174142,41.339703 z"
     id="rect2820"
     style="fill:#000000;fill-opacity:1;stroke:none" />
  <path
     d="m 10.901557,20.687621 75.306872,0"
     id="path3709"
     style="fill:none;stroke:#ff00ff;stroke-width:0.13715945;stroke-linecap:butt;stroke-linejoin:miter;stroke-miterlimit:4;stroke-opacity:0.47058824;stroke-dasharray:none" />
  <path
     d="m 7.5084778,48.826197 75.3068762,0"
     id="path3709-6"
     style="fill:none;stroke:#ff00ff;stroke-width:0.12760623;stroke-linecap:butt;stroke-linejoin:miter;stroke-miterlimit:4;stroke-opacity:0.49019608;stroke-dasharray:none" />
  <path
     d="m 42.424315,14.31016 0,39.205528"
     id="path3643"
     style="fill:none;stroke:#00ff00;stroke-width:1.66234326px;stroke-linecap:butt;stroke-linejoin:miter;stroke-opacity:0.19607843" />
  <path
     d="m 55.265982,22.912899 3.826187,0"
     id="path3699-7"
     style="fill:none;stroke:#00ff00;stroke-width:0.61885923;stroke-linecap:butt;stroke-linejoin:miter;stroke-miterlimit:4;stroke-opacity:0.19607843;stroke-dasharray:none" />
</svg>
