<?xml version="1.0" encoding="UTF-8" standalone="no"?>
<!-- Created with Inkscape (http://www.inkscape.org/) -->

<svg
   xmlns:svg="http://www.w3.org/2000/svg"
   xmlns="http://www.w3.org/2000/svg"
   version="1.1"
   width="744.09448"
   height="1052.3622"
   id="svg2">
  <defs
     id="defs4" />
  <rect
     width="46.593483"
     height="38.250298"
     x="20.486448"
     y="16.127098"
     id="rect3705"
     style="fill:#ff0000;fill-opacity:0.19607843;stroke:none" />
  <path
     d="m 10.714878,22.240641 75.306871,0"
     id="path3709"
     style="fill:none;stroke:#ff00ff;stroke-width:0.13715945;stroke-linecap:butt;stroke-linejoin:miter;stroke-miterlimit:4;stroke-opacity:0.47058824;stroke-dasharray:none" />
  <path
     d="m 7.7169001,51.302735 75.3068759,0"
     id="path3709-6"
     style="fill:none;stroke:#ff00ff;stroke-width:0.12760623;stroke-linecap:butt;stroke-linejoin:miter;stroke-miterlimit:4;stroke-opacity:0.49019608;stroke-dasharray:none" />
  <path
     d="m 42.424315,14.31016 0,39.205528"
     id="path3643"
     style="fill:none;stroke:#00ff00;stroke-width:1.66234326px;stroke-linecap:butt;stroke-linejoin:miter;stroke-opacity:0.19607843" />
  <path
     d="m 42.5625,22.21875 c -5.14668,0.08307 -10.413631,2.323115 -14.625,5.75 -2.839333,2.31043 -5.692365,5.81535 -6.375,9.59375 -0.562881,3.115559 0.460456,6.576458 2.15625,9.25 1.124075,1.772186 2.941559,3.257862 4.9375,3.90625 3.13327,1.017853 6.75651,0.656025 9.875,-0.40625 3.381436,-1.151844 6.39914,-3.497833 8.75,-6.1875 2.820895,-3.227443 5.703325,-7.171628 5.952721,-11.398667 l 0,-0.507583 -0.0075,-9.46875 -3.508158,0 0,2.15625 c -1.548417,-1.787776 -3.952945,-2.598539 -6.125,-2.6875 -0.341635,-0.01399 -0.688138,-0.0055 -1.03125,0 l 0,0 z"
     id="rect2911"
     style="fill:#000000;fill-opacity:1;stroke:none" />
  <path
     d="m 49.729726,22.834258 3.4979,0"
     id="path3699"
     style="fill:none;stroke:#00ff00;stroke-width:0.51302785;stroke-linecap:butt;stroke-linejoin:miter;stroke-miterlimit:4;stroke-opacity:0.19607843;stroke-dasharray:none" />
</svg>
